<svg width="80" height="80" viewBox="0 0 80 80" fill="none" xmlns="http://www.w3.org/2000/svg">
<circle cx="40" cy="40" r="40" fill="#CDB4DB" fill-opacity="0.25"/>
<path d="M37.5 31.25C35.7875 29.5375 32.7725 28.3475 30 28.2725M30 28.2725C26.7 28.1825 23.75 29.675 23.75 33.75C23.75 41.25 37.5 37.5 37.5 45C37.5 49.2775 33.84 51.115 30 50.9775M30 28.2725V23.75M22.5 47.5C24.11 49.65 27.1075 50.875 30 50.9775M30 50.9775V56.25" stroke="#002244" stroke-width="3" stroke-linecap="round" stroke-linejoin="round"/>
<path d="M47.5 31.25C45.7875 29.5375 42.7725 28.3475 40 28.2725M40 28.2725C36.7 28.1825 33.75 29.675 33.75 33.75C33.75 41.25 47.5 37.5 47.5 45C47.5 49.2775 43.84 51.115 40 50.9775M40 28.2725V23.75M32.5 47.5C34.11 49.65 37.1075 50.875 40 50.9775M40 50.9775V56.25" stroke="#002244" stroke-opacity="0.66" stroke-width="3" stroke-linecap="round" stroke-linejoin="round"/>
<path d="M57.5 31.25C55.7875 29.5375 52.7725 28.3475 50 28.2725M50 28.2725C46.7 28.1825 43.75 29.675 43.75 33.75C43.75 41.25 57.5 37.5 57.5 45C57.5 49.2775 53.84 51.115 50 50.9775M50 28.2725V23.75M42.5 47.5C44.11 49.65 47.1075 50.875 50 50.9775M50 50.9775V56.25" stroke="#002244" stroke-opacity="0.33" stroke-width="3" stroke-linecap="round" stroke-linejoin="round"/>
</svg>
