<svg width="80" height="80" viewBox="0 0 80 80" fill="none" xmlns="http://www.w3.org/2000/svg">
<circle cx="40" cy="40" r="40" fill="#CDB4DB" fill-opacity="0.25"/>
<path d="M32.5 15H47.5M40 35V45M40 65C45.3043 65 50.3914 62.8929 54.1421 59.1421C57.8929 55.3914 60 50.3043 60 45C60 39.6957 57.8929 34.6086 54.1421 30.8579C50.3914 27.1071 45.3043 25 40 25C34.6957 25 29.6086 27.1071 25.8579 30.8579C22.1071 34.6086 20 39.6957 20 45C20 50.3043 22.1071 55.3914 25.8579 59.1421C29.6086 62.8929 34.6957 65 40 65Z" stroke="#002244" stroke-width="3" stroke-linecap="round" stroke-linejoin="round"/>
</svg>
