<svg width="80" height="80" viewBox="0 0 80 80" fill="none" xmlns="http://www.w3.org/2000/svg">
<circle cx="40" cy="40" r="40" fill="#CDB4DB" fill-opacity="0.25"/>
<path d="M47.18 39.1125L56.5 18M34.79 39.58L24 18M43.4025 38.12L33.5875 18M47.4 18L44.8 24.25M26.5 53C26.5 56.9782 28.0804 60.7936 30.8934 63.6066C33.7064 66.4197 37.5218 68 41.5 68C45.4782 68 49.2936 66.4197 52.1066 63.6066C54.9196 60.7936 56.5 56.9782 56.5 53C56.5 49.0218 54.9196 45.2064 52.1066 42.3934C49.2936 39.5804 45.4782 38 41.5 38C37.5218 38 33.7064 39.5804 30.8934 42.3934C28.0804 45.2064 26.5 49.0218 26.5 53Z" stroke="#002244" stroke-width="3" stroke-linecap="round" stroke-linejoin="round"/>
</svg>
