<svg width="299" height="45" viewBox="0 0 299 45" fill="none" xmlns="http://www.w3.org/2000/svg">
<path d="M0.0699414 44L5.45994 -6.55651e-07H15.3599L20.7499 44H19.5399L14.3149 0.976247H6.50494L1.27994 44H0.0699414ZM4.86869 44L6.29869 31.8725H14.5349L15.9649 44H14.7412L13.5724 32.835H7.26119L6.09244 44H4.86869ZM2.44869 44L7.23369 1.96625H13.5999L18.3712 44H17.1474L15.6624 30.91H5.15744L3.67244 44H2.44869ZM5.23994 29.9475H15.5524L14.2462 17.6687L12.5549 2.92875H8.26494L6.54619 17.6687L5.23994 29.9475ZM6.57369 28.9712L7.68744 17.6687L9.08994 3.85H11.7437L13.1737 17.6687L14.2462 28.9712H6.57369ZM7.81119 28.0087H13.0087L12.0737 17.6687L10.8499 4.82625H9.98369L8.75994 17.6687L7.81119 28.0087ZM35.9613 44V-6.55651e-07H45.0501C47.0851 -6.55651e-07 48.7992 0.274999 50.1926 0.824999C51.5951 1.375 52.663 2.32375 53.3963 3.67125C54.1388 5.01875 54.533 6.89333 54.5788 9.295C54.6338 12.0817 54.6705 14.8179 54.6888 17.5037C54.7071 20.1896 54.7071 22.935 54.6888 25.74C54.6796 28.545 54.643 31.5242 54.5788 34.6775C54.533 37.0792 54.1388 38.9583 53.3963 40.315C52.6538 41.6717 51.5813 42.625 50.1788 43.175C48.7763 43.725 47.0621 44 45.0363 44H35.9613ZM37.1438 42.955H45.0363C46.3471 42.955 47.5159 42.8267 48.5426 42.57C49.5692 42.3042 50.4355 41.8596 51.1413 41.2362C51.8563 40.6129 52.4017 39.765 52.7776 38.6925C53.1626 37.62 53.3688 36.2725 53.3963 34.65C53.4513 31.735 53.488 28.9117 53.5063 26.18C53.5246 23.4392 53.5246 20.6892 53.5063 17.93C53.488 15.1617 53.4513 12.2879 53.3963 9.30875C53.3505 7.12708 52.993 5.44042 52.3238 4.24875C51.6638 3.04792 50.7151 2.21375 49.4776 1.74625C48.2492 1.27875 46.7734 1.045 45.0501 1.045H37.1438V42.955ZM38.3401 41.9237V2.07625H45.0501C46.5534 2.07625 47.8276 2.2825 48.8726 2.695C49.9267 3.1075 50.738 3.84083 51.3063 4.895C51.8746 5.94917 52.1771 7.42958 52.2138 9.33625C52.2596 11.5179 52.2917 13.6492 52.3101 15.73C52.3284 17.8017 52.3376 19.8642 52.3376 21.9175C52.3376 23.9708 52.3284 26.0471 52.3101 28.1463C52.2917 30.2362 52.2596 32.395 52.2138 34.6225C52.1771 36.52 51.8746 38.0004 51.3063 39.0637C50.7471 40.1179 49.9405 40.8604 48.8863 41.2912C47.8413 41.7129 46.558 41.9237 45.0363 41.9237H38.3401ZM39.5226 40.8787H45.0363C46.9888 40.8787 48.4692 40.4387 49.4776 39.5587C50.4859 38.6787 50.9992 37.0517 51.0176 34.6775C51.0451 31.6983 51.0634 28.8521 51.0726 26.1387C51.0817 23.4162 51.0817 20.6846 51.0726 17.9437C51.0634 15.2029 51.0451 12.32 51.0176 9.295C50.9992 6.96666 50.4996 5.35791 49.5188 4.46875C48.538 3.57042 47.0484 3.12125 45.0501 3.12125H39.5226V40.8787ZM40.7188 39.8475V4.1525H45.0501C46.0584 4.1525 46.9155 4.30375 47.6213 4.60625C48.3363 4.89958 48.8817 5.4175 49.2576 6.16C49.6334 6.9025 49.8259 7.9475 49.8351 9.295C49.8626 12.2283 49.8809 15.0608 49.8901 17.7925C49.8992 20.515 49.8992 23.2558 49.8901 26.015C49.8809 28.765 49.8626 31.6525 49.8351 34.6775C49.8167 36.6392 49.4088 37.9912 48.6113 38.7337C47.823 39.4762 46.6313 39.8475 45.0363 39.8475H40.7188ZM41.9013 38.8025H45.0363C45.8338 38.8025 46.4938 38.6787 47.0163 38.4312C47.548 38.1746 47.9467 37.7483 48.2126 37.1525C48.4876 36.5475 48.6296 35.7225 48.6388 34.6775C48.6663 31.9458 48.6846 29.2462 48.6938 26.5787C48.703 23.9021 48.703 21.1521 48.6938 18.3287C48.6938 15.4962 48.6755 12.485 48.6388 9.295C48.6296 7.755 48.3317 6.68708 47.7451 6.09125C47.1584 5.49542 46.2601 5.1975 45.0501 5.1975H41.9013V38.8025ZM68.193 44.4675C65.0947 44.4675 62.8351 43.8396 61.4143 42.5837C59.9934 41.3187 59.2143 39.2058 59.0768 36.245C59.0401 35.2183 59.008 33.9442 58.9805 32.4225C58.9622 30.8917 58.953 29.2875 58.953 27.61C58.953 25.9233 58.9622 24.31 58.9805 22.77C59.008 21.23 59.0401 19.9283 59.0768 18.865C59.2418 15.8583 60.0393 13.7179 61.4693 12.4437C62.8993 11.1696 65.1176 10.5325 68.1243 10.5325C71.1034 10.5325 73.2851 11.1512 74.6693 12.3887C76.0626 13.6262 76.8234 15.7117 76.9518 18.645C76.9793 19.2683 76.9976 19.9787 77.0068 20.7762C77.0251 21.5737 77.0343 22.4308 77.0343 23.3475C77.0343 24.2642 77.0251 25.2175 77.0068 26.2075C76.9884 27.1975 76.9518 28.1967 76.8968 29.205H64.893C64.9022 30.0208 64.9114 30.8321 64.9205 31.6387C64.9297 32.4454 64.9389 33.2062 64.948 33.9212C64.9664 34.6271 64.9847 35.2504 65.003 35.7912C65.0764 37.1662 65.3468 38.1517 65.8143 38.7475C66.2818 39.3433 67.0747 39.6412 68.193 39.6412C69.183 39.6412 69.8843 39.3708 70.2968 38.83C70.7093 38.28 70.9476 37.3221 71.0118 35.9562C71.0393 35.5254 71.0484 34.9662 71.0393 34.2787C71.0301 33.5821 71.0026 32.7983 70.9568 31.9275H72.153C72.1897 32.7983 72.2126 33.5821 72.2218 34.2787C72.2309 34.9662 72.2264 35.5437 72.208 36.0112C72.1347 37.6979 71.7909 38.885 71.1768 39.5725C70.5718 40.26 69.5772 40.6037 68.193 40.6037C66.6714 40.6037 65.5759 40.2508 64.9068 39.545C64.2376 38.83 63.8709 37.62 63.8068 35.915C63.7884 35.3008 63.7701 34.5675 63.7518 33.715C63.7334 32.8625 63.7197 31.9642 63.7105 31.02C63.7105 30.0667 63.7105 29.1408 63.7105 28.2425H75.7555C75.7922 27.3717 75.8151 26.4962 75.8243 25.6162C75.8426 24.7362 75.8518 23.8792 75.8518 23.045C75.8518 22.2108 75.8426 21.4271 75.8243 20.6937C75.8151 19.9512 75.7968 19.2867 75.7693 18.7C75.6409 16.06 74.9718 14.2037 73.7618 13.1312C72.5518 12.0496 70.6726 11.5087 68.1243 11.5087C65.4751 11.5087 63.5409 12.0817 62.3218 13.2275C61.1026 14.3733 60.4197 16.2754 60.273 18.9337C60.2272 20.0337 60.1905 21.3583 60.163 22.9075C60.1447 24.4567 60.1355 26.0608 60.1355 27.72C60.1355 29.3792 60.1447 30.9512 60.163 32.4362C60.1905 33.9212 60.2226 35.1542 60.2593 36.135C60.3876 38.7658 61.0568 40.6496 62.2668 41.7862C63.4859 42.9229 65.4614 43.4912 68.193 43.4912C70.8055 43.4912 72.6893 42.9321 73.8443 41.8137C74.9993 40.6954 75.6409 38.8208 75.7693 36.19C75.7876 35.7867 75.7968 35.3467 75.7968 34.87C75.7968 34.3933 75.7876 33.9075 75.7693 33.4125C75.7601 32.9083 75.7418 32.4133 75.7143 31.9275H76.8968C76.9334 32.5967 76.9609 33.3208 76.9793 34.1C76.9976 34.87 76.9884 35.5804 76.9518 36.2313C76.8234 39.1921 76.0855 41.305 74.738 42.57C73.3905 43.835 71.2089 44.4675 68.193 44.4675ZM68.193 42.5287C65.9014 42.5287 64.233 42.0429 63.188 41.0712C62.143 40.0904 61.5609 38.4312 61.4418 36.0937C61.4051 35.0671 61.3776 33.8021 61.3593 32.2987C61.3409 30.7954 61.3318 29.2142 61.3318 27.555C61.3318 25.8867 61.3409 24.3008 61.3593 22.7975C61.3776 21.285 61.4097 20.0246 61.4555 19.0162C61.5839 16.6421 62.1659 14.96 63.2018 13.97C64.2468 12.9708 65.8876 12.4712 68.1243 12.4712C70.2601 12.4712 71.8414 12.9342 72.868 13.86C73.9039 14.7858 74.4722 16.4083 74.573 18.7275C74.6097 19.36 74.6326 20.1208 74.6418 21.01C74.6601 21.8992 74.6647 22.8754 74.6555 23.9387C74.6555 25.0021 74.6372 26.1158 74.6005 27.28H62.528C62.5189 29.0125 62.5189 30.5433 62.528 31.8725C62.5372 33.2017 62.5509 34.5767 62.5693 35.9975C62.5968 37.9958 63.0368 39.4258 63.8893 40.2875C64.7418 41.14 66.1764 41.5662 68.193 41.5662C69.898 41.5662 71.163 41.1767 71.988 40.3975C72.8222 39.6092 73.2897 38.1837 73.3905 36.1212C73.4089 35.5529 73.4134 34.9158 73.4043 34.21C73.3951 33.495 73.3722 32.7342 73.3355 31.9275H74.518C74.5547 32.67 74.5776 33.4033 74.5868 34.1275C74.6051 34.8425 74.6005 35.5162 74.573 36.1487C74.4722 38.4679 73.9359 40.1133 72.9643 41.085C71.9926 42.0475 70.4022 42.5287 68.193 42.5287ZM62.528 26.3175H73.4318C73.4593 25.2908 73.473 24.31 73.473 23.375C73.473 22.44 73.4639 21.5783 73.4455 20.79C73.4364 20.0017 73.418 19.3233 73.3905 18.755C73.2989 16.7108 72.813 15.3129 71.933 14.5612C71.053 13.8096 69.7834 13.4337 68.1243 13.4337C66.3093 13.4337 64.9664 13.86 64.0955 14.7125C63.2339 15.5558 62.748 17.0133 62.638 19.085C62.6105 19.745 62.5876 20.7442 62.5693 22.0825C62.5509 23.4208 62.5372 24.8325 62.528 26.3175ZM63.7105 25.3412C63.7197 24.6904 63.7289 24.0029 63.738 23.2787C63.7472 22.5546 63.7564 21.8396 63.7655 21.1337C63.7839 20.4187 63.8022 19.7587 63.8205 19.1537C63.9122 17.4212 64.2926 16.1975 64.9618 15.4825C65.6309 14.7583 66.6851 14.3962 68.1243 14.3962C69.5359 14.3962 70.5489 14.74 71.163 15.4275C71.7864 16.115 72.1347 17.2608 72.208 18.865C72.2264 19.2775 72.2401 19.8183 72.2493 20.4875C72.2676 21.1567 72.2768 21.9083 72.2768 22.7425C72.2768 23.5767 72.2676 24.4429 72.2493 25.3412H63.7105ZM64.9205 24.3787H71.0668C71.0759 23.6271 71.0805 22.8983 71.0805 22.1925C71.0805 21.4775 71.0714 20.8358 71.053 20.2675C71.0439 19.69 71.0301 19.2362 71.0118 18.9062C70.9568 17.6137 70.7047 16.7017 70.2555 16.17C69.8155 15.6292 69.1051 15.3587 68.1243 15.3587C67.0701 15.3587 66.3047 15.6475 65.828 16.225C65.3514 16.8025 65.0809 17.7971 65.0168 19.2087C64.9984 19.6854 64.9801 20.1942 64.9618 20.735C64.9526 21.2667 64.9434 21.835 64.9343 22.44C64.9251 23.0358 64.9205 23.6821 64.9205 24.3787ZM100.182 44H98.9995V-6.55651e-07H100.182V44ZM97.817 44H96.6895L96.8957 36.5062L96.6345 36.4925C96.2403 38.2708 95.4428 39.7283 94.242 40.865C93.0411 41.9925 91.4966 42.5562 89.6082 42.5562C87.7382 42.5562 86.322 41.9696 85.3595 40.7962C84.4061 39.6137 83.8332 37.7071 83.6407 35.0762C83.5307 33.4262 83.4574 31.7854 83.4207 30.1537C83.3841 28.5129 83.3795 26.8446 83.407 25.1487C83.4436 23.4437 83.517 21.6654 83.627 19.8137C83.792 17.3662 84.4657 15.5375 85.6482 14.3275C86.8399 13.1083 88.4853 12.4987 90.5845 12.4987C92.2436 12.4987 93.5682 13.035 94.5582 14.1075C95.5482 15.18 96.2128 16.4633 96.552 17.9575H96.827L96.6207 10.285V-6.55651e-07H97.817V44ZM90.1995 41.6075C91.547 41.6075 92.6653 41.2867 93.5545 40.645C94.4528 40.0033 95.1403 39.1554 95.617 38.1012C96.0936 37.0471 96.3641 35.9012 96.4282 34.6637C96.5107 32.8762 96.5657 31.1437 96.5932 29.4662C96.6299 27.7887 96.6345 26.1708 96.607 24.6125C96.5886 23.045 96.5382 21.5508 96.4557 20.13C96.3824 18.9383 96.1486 17.8383 95.7545 16.83C95.3695 15.8217 94.7782 15.0104 93.9807 14.3962C93.1832 13.7821 92.1153 13.475 90.777 13.475C89.0078 13.475 87.6007 13.9883 86.5557 15.015C85.5107 16.0417 84.9332 17.6458 84.8232 19.8275C84.7499 21.615 84.6995 23.32 84.672 24.9425C84.6445 26.565 84.6445 28.1967 84.672 29.8375C84.6995 31.4783 84.7499 33.22 84.8232 35.0625C84.9332 37.2992 85.4053 38.9492 86.2395 40.0125C87.0828 41.0758 88.4028 41.6075 90.1995 41.6075ZM90.502 40.59C89.0353 40.59 87.9353 40.15 87.202 39.27C86.4778 38.39 86.0745 36.9875 85.992 35.0625C85.937 33.3208 85.8957 31.6158 85.8682 29.9475C85.8499 28.27 85.8499 26.5971 85.8682 24.9287C85.8957 23.2512 85.937 21.5554 85.992 19.8412C86.0745 17.9254 86.5649 16.5412 87.4632 15.6887C88.3707 14.8271 89.5303 14.3962 90.942 14.3962C92.5645 14.3962 93.6782 14.96 94.2832 16.0875C94.8974 17.215 95.2411 18.5487 95.3145 20.0887C95.3786 21.6287 95.4199 23.1962 95.4382 24.7912C95.4657 26.3771 95.4657 27.995 95.4382 29.645C95.4199 31.295 95.3741 32.9633 95.3007 34.65C95.2182 36.4833 94.7599 37.9317 93.9257 38.995C93.0916 40.0583 91.9503 40.59 90.502 40.59ZM90.502 39.6412C91.6845 39.6412 92.5599 39.1829 93.1282 38.2662C93.7057 37.3496 94.0357 36.1442 94.1182 34.65C94.1916 33.11 94.2374 31.515 94.2557 29.865C94.2832 28.215 94.2832 26.565 94.2557 24.915C94.2374 23.2558 94.1916 21.6517 94.1182 20.1025C94.0541 18.7642 93.8157 17.6412 93.4032 16.7337C92.9999 15.8171 92.1841 15.3587 90.9557 15.3587C89.9199 15.3587 89.0491 15.73 88.3432 16.4725C87.6466 17.2058 87.2616 18.315 87.1882 19.8C87.0782 22.3758 87.0232 24.8783 87.0232 27.3075C87.0232 29.7367 87.0782 32.3262 87.1882 35.0762C87.2616 36.6346 87.5641 37.785 88.0957 38.5275C88.6274 39.27 89.4295 39.6412 90.502 39.6412ZM89.0307 44.4675C86.5557 44.4675 84.7041 43.7204 83.4757 42.2262C82.2566 40.7321 81.5232 38.3487 81.2757 35.0762C81.1657 33.4079 81.0924 31.7487 81.0557 30.0987C81.0191 28.4487 81.0191 26.7758 81.0557 25.08C81.0924 23.375 81.1657 21.6104 81.2757 19.7862C81.4957 16.5596 82.3207 14.2129 83.7507 12.7462C85.1807 11.2796 87.147 10.5462 89.6495 10.5462C90.7953 10.5462 91.8311 10.7754 92.757 11.2337C93.6828 11.6921 94.4528 12.3704 95.067 13.2687H95.3557L94.2557 6.66875V-6.55651e-07H95.507V8.01625L96.2082 15.1937H95.782C95.2136 14.0479 94.4574 13.1496 93.5132 12.4987C92.5691 11.8479 91.4324 11.5225 90.1032 11.5225C87.8024 11.5225 85.9966 12.1962 84.6857 13.5437C83.3841 14.8821 82.6416 16.9675 82.4582 19.8C82.3574 21.56 82.2841 23.2787 82.2382 24.9562C82.2016 26.6246 82.2016 28.2883 82.2382 29.9475C82.2749 31.6067 82.3482 33.3025 82.4582 35.035C82.6599 37.9133 83.2878 40.0446 84.342 41.4287C85.4053 42.8129 87.0553 43.505 89.292 43.505C90.7586 43.505 92.0557 43.12 93.1832 42.35C94.3199 41.5708 95.1999 40.5579 95.8232 39.3112H96.0982L95.8232 44H94.7232L94.737 43.5737L95.0395 41.6762H94.792C94.1411 42.5654 93.3207 43.2529 92.3307 43.7387C91.3407 44.2246 90.2407 44.4675 89.0307 44.4675ZM105.438 1.045V-6.55651e-07H111.378V1.045H105.438ZM105.438 5.1975V4.1525H111.378V5.1975H105.438ZM105.438 3.12125V2.07625H111.378V3.12125H105.438ZM110.182 44V11H111.378V44H110.182ZM105.438 44V11H106.621V44H105.438ZM107.803 44V11H109V44H107.803ZM125.368 44.4675C122.288 44.4675 120.037 43.8396 118.616 42.5837C117.196 41.3187 116.416 39.2058 116.279 36.245C116.242 35.2183 116.21 33.9442 116.183 32.4225C116.164 30.8917 116.155 29.2875 116.155 27.61C116.155 25.9233 116.164 24.31 116.183 22.77C116.21 21.23 116.242 19.9283 116.279 18.865C116.444 15.8583 117.232 13.7179 118.644 12.4437C120.065 11.1696 122.279 10.5325 125.285 10.5325C128.31 10.5325 130.515 11.1512 131.899 12.3887C133.292 13.6262 134.044 15.7071 134.154 18.6312C134.172 19.2546 134.177 19.965 134.168 20.7625C134.159 21.5508 134.136 22.2887 134.099 22.9762H132.916C132.953 22.3071 132.976 21.5921 132.985 20.8312C132.994 20.0704 132.99 19.3554 132.971 18.6862C132.871 16.1196 132.229 14.2817 131.046 13.1725C129.864 12.0633 127.944 11.5087 125.285 11.5087C122.654 11.5087 120.729 12.0817 119.51 13.2275C118.3 14.3642 117.622 16.2662 117.475 18.9337C117.429 20.0337 117.393 21.3583 117.365 22.9075C117.347 24.4567 117.338 26.0654 117.338 27.7337C117.338 29.3929 117.347 30.965 117.365 32.45C117.393 33.935 117.425 35.1633 117.461 36.135C117.581 38.6925 118.25 40.5579 119.469 41.7312C120.688 42.9046 122.654 43.4912 125.368 43.4912C127.98 43.4912 129.869 42.9275 131.033 41.8C132.206 40.6725 132.852 38.8025 132.971 36.19C132.999 35.5483 133.008 34.9112 132.999 34.2787C132.999 33.6462 132.971 32.8625 132.916 31.9275H134.099C134.154 32.7342 134.186 33.4629 134.195 34.1137C134.204 34.7554 134.191 35.4612 134.154 36.2313C134.026 39.1737 133.283 41.2821 131.926 42.5562C130.579 43.8304 128.393 44.4675 125.368 44.4675ZM125.368 42.5287C123.085 42.5287 121.417 42.0017 120.363 40.9475C119.318 39.8933 118.745 38.2754 118.644 36.0937C118.607 35.0671 118.58 33.8021 118.561 32.2987C118.543 30.7862 118.534 29.2004 118.534 27.5412C118.534 25.8729 118.543 24.2871 118.561 22.7837C118.58 21.2712 118.612 20.0108 118.658 19.0025C118.786 16.61 119.373 14.9233 120.418 13.9425C121.463 12.9617 123.085 12.4712 125.285 12.4712C127.476 12.4712 129.085 12.9433 130.111 13.8875C131.147 14.8225 131.702 16.4312 131.775 18.7137C131.794 19.3096 131.798 19.9787 131.789 20.7212C131.78 21.4546 131.757 22.2062 131.72 22.9762H130.538C130.574 22.1696 130.597 21.4042 130.606 20.68C130.616 19.9467 130.611 19.3004 130.593 18.7412C130.529 16.7337 130.061 15.3496 129.19 14.5887C128.319 13.8187 127.018 13.4337 125.285 13.4337C123.562 13.4337 122.251 13.8371 121.353 14.6438C120.454 15.4412 119.95 16.9217 119.84 19.085C119.813 19.7817 119.785 20.8175 119.758 22.1925C119.73 23.5583 119.707 25.0708 119.689 26.73C119.671 28.38 119.666 30.0117 119.675 31.625C119.684 33.2292 119.712 34.6271 119.758 35.8187C119.868 37.9637 120.372 39.4579 121.27 40.3012C122.169 41.1446 123.534 41.5662 125.368 41.5662C127.082 41.5662 128.356 41.1721 129.19 40.3837C130.034 39.5954 130.501 38.1792 130.593 36.135C130.611 35.5575 130.62 34.9617 130.62 34.3475C130.62 33.7333 130.593 32.9267 130.538 31.9275H131.72C131.784 32.9817 131.816 33.8021 131.816 34.3887C131.816 34.9662 131.803 35.5575 131.775 36.1625C131.674 38.445 131.134 40.0767 130.153 41.0575C129.172 42.0383 127.577 42.5287 125.368 42.5287ZM125.368 40.6037C123.901 40.6037 122.824 40.2462 122.136 39.5312C121.449 38.8162 121.073 37.5696 121.009 35.7912C120.972 34.7737 120.945 33.5362 120.926 32.0787C120.917 30.6121 120.913 29.0767 120.913 27.4725C120.913 25.8683 120.922 24.3329 120.94 22.8662C120.959 21.3996 120.986 20.1621 121.023 19.1537C121.114 17.3112 121.513 16.06 122.219 15.4C122.925 14.7308 123.947 14.3962 125.285 14.3962C126.706 14.3962 127.737 14.7354 128.379 15.4138C129.021 16.0829 129.364 17.2287 129.41 18.8512C129.419 19.3096 129.419 19.8779 129.41 20.5562C129.41 21.2346 129.387 22.0412 129.341 22.9762H128.159C128.196 22.0962 128.219 21.3125 128.228 20.625C128.237 19.9375 128.232 19.36 128.214 18.8925C128.186 17.6275 127.953 16.7246 127.513 16.1837C127.082 15.6337 126.339 15.3587 125.285 15.3587C124.259 15.3587 123.507 15.6429 123.03 16.2112C122.554 16.7704 122.283 17.7742 122.219 19.2225C122.182 20.1758 122.15 21.3721 122.123 22.8112C122.104 24.2412 122.095 25.7583 122.095 27.3625C122.095 28.9575 122.104 30.4975 122.123 31.9825C122.141 33.4583 122.169 34.7279 122.205 35.7912C122.279 37.1846 122.549 38.1746 123.016 38.7612C123.493 39.3479 124.277 39.6412 125.368 39.6412C126.404 39.6412 127.128 39.3617 127.54 38.8025C127.953 38.2342 128.177 37.2992 128.214 35.9975C128.232 35.4108 128.241 34.8517 128.241 34.32C128.241 33.7883 128.214 32.9908 128.159 31.9275H129.341C129.396 32.8533 129.424 33.6462 129.424 34.3062C129.433 34.9662 129.429 35.5346 129.41 36.0112C129.337 37.6796 128.993 38.8621 128.379 39.5587C127.765 40.2554 126.761 40.6037 125.368 40.6037ZM155.13 44V19.8275C155.13 16.8575 154.562 14.7308 153.425 13.4475C152.289 12.155 150.4 11.5087 147.76 11.5087C145.047 11.5087 143.081 12.0633 141.862 13.1725C140.642 14.2817 139.982 16.1196 139.882 18.6862C139.863 19.3371 139.854 20.0337 139.854 20.7762C139.854 21.5096 139.877 22.2429 139.923 22.9762H138.754C138.699 22.2154 138.667 21.4958 138.658 20.8175C138.658 20.13 138.672 19.4012 138.699 18.6312C138.809 15.7254 139.57 13.6492 140.982 12.4025C142.402 11.1558 144.662 10.5325 147.76 10.5325C149.805 10.5325 151.455 10.8487 152.71 11.4812C153.966 12.1046 154.878 13.0992 155.447 14.465C156.024 15.8217 156.313 17.6092 156.313 19.8275V44H155.13ZM146.028 41.635C147.339 41.635 148.494 41.2729 149.493 40.5487C150.492 39.8246 151.276 38.9033 151.844 37.785C152.422 36.6667 152.71 35.53 152.71 34.375V26.4137C151.794 26.5971 150.781 26.8629 149.672 27.2112C148.562 27.5596 147.481 27.9583 146.427 28.4075C144.832 29.1133 143.617 29.9796 142.783 31.0062C141.949 32.0237 141.49 33.3987 141.408 35.1312C141.39 35.4704 141.39 35.7958 141.408 36.1075C141.435 36.4192 141.458 36.7171 141.477 37.0012C141.587 38.5137 142.036 39.6642 142.824 40.4525C143.622 41.2408 144.69 41.635 146.028 41.635ZM146.317 40.6037C145.207 40.6037 144.355 40.2462 143.759 39.5312C143.172 38.8071 142.806 37.9317 142.659 36.905C142.632 36.6208 142.609 36.3229 142.59 36.0112C142.581 35.6996 142.581 35.4429 142.59 35.2412C142.673 33.7471 143.049 32.5508 143.718 31.6525C144.396 30.745 145.427 29.9658 146.812 29.315C147.49 28.9942 148.246 28.6825 149.08 28.38C149.915 28.0683 150.73 27.8025 151.528 27.5825V34.485C151.528 35.5667 151.331 36.575 150.937 37.51C150.542 38.4358 149.96 39.1829 149.19 39.7512C148.42 40.3196 147.462 40.6037 146.317 40.6037ZM146.482 39.655C147.334 39.655 148.045 39.4212 148.613 38.9537C149.19 38.4862 149.621 37.8721 149.905 37.1112C150.19 36.3412 150.332 35.4979 150.332 34.5812V28.8337C149.699 29.0629 149.122 29.2921 148.599 29.5212C148.077 29.7504 147.609 29.9842 147.197 30.2225C146.005 30.8642 145.143 31.5562 144.612 32.2987C144.089 33.0321 143.814 34.0083 143.787 35.2275C143.777 35.4842 143.773 35.7408 143.773 35.9975C143.782 36.2542 143.805 36.52 143.842 36.795C143.933 37.5283 144.19 38.1883 144.612 38.775C145.042 39.3617 145.666 39.655 146.482 39.655ZM144.9 44.4813C142.847 44.4813 141.215 43.8671 140.005 42.6387C138.795 41.4012 138.099 39.6229 137.915 37.3037C137.888 36.8546 137.865 36.3871 137.847 35.9012C137.837 35.4154 137.842 35.0212 137.86 34.7187C138.016 32.6104 138.644 30.8412 139.744 29.4112C140.853 27.9812 142.677 26.7346 145.217 25.6712C145.886 25.3687 146.472 25.1121 146.977 24.9012C147.49 24.6812 148.008 24.4842 148.53 24.31C149.062 24.1267 149.676 23.9479 150.373 23.7737V19.8275C150.373 18.315 150.185 17.1921 149.809 16.4587C149.442 15.7254 148.76 15.3587 147.76 15.3587C146.66 15.3587 145.872 15.6429 145.395 16.2112C144.928 16.7704 144.671 17.6642 144.625 18.8925C144.616 19.2775 144.607 19.8367 144.598 20.57C144.598 21.3033 144.616 22.1054 144.653 22.9762H143.47C143.434 22.0137 143.415 21.2025 143.415 20.5425C143.425 19.8733 143.434 19.2821 143.443 18.7687C143.507 17.1554 143.892 16.0233 144.598 15.3725C145.304 14.7217 146.358 14.3962 147.76 14.3962C149.181 14.3962 150.167 14.8362 150.717 15.7162C151.276 16.5871 151.555 17.9575 151.555 19.8275V24.585C150.391 24.8692 149.342 25.1762 148.407 25.5062C147.481 25.8362 146.55 26.1937 145.615 26.5787C143.305 27.5321 141.669 28.6687 140.707 29.9887C139.744 31.2996 139.19 32.9083 139.043 34.815C139.025 35.1633 139.02 35.5483 139.029 35.97C139.047 36.3825 139.07 36.795 139.098 37.2075C139.263 39.27 139.877 40.8421 140.94 41.9237C142.013 43.0054 143.452 43.5463 145.258 43.5463C146.89 43.5463 148.232 43.1658 149.287 42.405C150.35 41.6442 151.207 40.7 151.858 39.5725H152.133L151.693 43.065V44H150.51L150.497 43.7662L151.129 41.4287H150.909C150.139 42.4279 149.3 43.1887 148.393 43.7112C147.485 44.2246 146.321 44.4813 144.9 44.4813ZM152.752 44.0138V41.14L152.944 37.07H152.683C152.032 38.7108 151.138 40.0446 150.002 41.0712C148.865 42.0887 147.398 42.5929 145.602 42.5837C144.089 42.5746 142.856 42.1117 141.903 41.195C140.959 40.2783 140.418 38.9171 140.28 37.1112C140.262 36.7537 140.244 36.3825 140.225 35.9975C140.207 35.6033 140.207 35.2458 140.225 34.925C140.354 33.1833 140.844 31.7167 141.697 30.525C142.549 29.3242 143.993 28.3112 146.028 27.4862C146.816 27.1837 147.609 26.8996 148.407 26.6337C149.204 26.3679 149.97 26.1342 150.703 25.9325C151.445 25.7217 152.128 25.5567 152.752 25.4375V19.8275C152.752 17.545 152.367 15.9087 151.597 14.9187C150.836 13.9287 149.557 13.4337 147.76 13.4337C145.881 13.4337 144.511 13.8462 143.649 14.6712C142.797 15.4962 142.334 16.8529 142.26 18.7412C142.242 19.3829 142.233 20.0658 142.233 20.79C142.233 21.5142 142.251 22.2429 142.288 22.9762H141.105C141.069 22.2062 141.046 21.4592 141.037 20.735C141.037 20.0017 141.046 19.3279 141.064 18.7137C141.156 16.4862 141.72 14.8912 142.755 13.9287C143.791 12.9571 145.46 12.4712 147.76 12.4712C149.97 12.4712 151.551 13.0396 152.504 14.1762C153.457 15.3129 153.934 17.1967 153.934 19.8275V44.0138H152.752ZM171.978 42.3775C169.374 42.3775 167.573 41.8917 166.574 40.92C165.584 39.9483 165.089 38.3854 165.089 36.2313V14.1212H160.015V13.0762H165.089V1.65H166.271V13.0762H173.971V14.1212H166.271V36.2313C166.271 38.0554 166.684 39.3662 167.509 40.1637C168.334 40.9521 169.823 41.3462 171.978 41.3462C172.39 41.3462 172.803 41.3371 173.215 41.3187C173.637 41.2912 174.072 41.2546 174.521 41.2087V42.2125C174.155 42.2767 173.761 42.3225 173.339 42.35C172.926 42.3683 172.473 42.3775 171.978 42.3775ZM171.978 44.4675C168.586 44.4675 166.193 43.8304 164.8 42.5562C163.407 41.2821 162.71 39.1737 162.71 36.2313V16.1975H160.015V15.1525H163.893V36.2313C163.893 38.7612 164.484 40.5946 165.666 41.7312C166.858 42.8587 168.962 43.4225 171.978 43.4225C172.482 43.4225 172.945 43.4087 173.366 43.3812C173.797 43.3446 174.182 43.2896 174.521 43.2162V44.22C173.871 44.385 173.023 44.4675 171.978 44.4675ZM171.978 40.315C170.254 40.315 169.067 40.0033 168.416 39.38C167.775 38.7475 167.454 37.6979 167.454 36.2313V15.1525H173.971V16.1975H168.65V36.2313C168.65 37.3404 168.879 38.1242 169.338 38.5825C169.805 39.0408 170.685 39.27 171.978 39.27C172.647 39.27 173.188 39.2654 173.6 39.2562C174.022 39.2379 174.329 39.215 174.521 39.1875V40.1775C174.228 40.2142 173.875 40.2462 173.463 40.2737C173.05 40.3012 172.555 40.315 171.978 40.315ZM160.015 12.045V11H162.71V1.65H163.893V12.045H160.015ZM167.454 12.045V1.65H168.65V11H173.971V12.045H167.454ZM186.84 44.4675C183.742 44.4675 181.483 43.8396 180.062 42.5837C178.641 41.3187 177.862 39.2058 177.724 36.245C177.688 35.2183 177.655 33.9442 177.628 32.4225C177.61 30.8917 177.6 29.2875 177.6 27.61C177.6 25.9233 177.61 24.31 177.628 22.77C177.655 21.23 177.688 19.9283 177.724 18.865C177.889 15.8583 178.687 13.7179 180.117 12.4437C181.547 11.1696 183.765 10.5325 186.772 10.5325C189.751 10.5325 191.933 11.1512 193.317 12.3887C194.71 13.6262 195.471 15.7117 195.599 18.645C195.627 19.2683 195.645 19.9787 195.654 20.7762C195.673 21.5737 195.682 22.4308 195.682 23.3475C195.682 24.2642 195.673 25.2175 195.654 26.2075C195.636 27.1975 195.599 28.1967 195.544 29.205H183.54C183.55 30.0208 183.559 30.8321 183.568 31.6387C183.577 32.4454 183.586 33.2062 183.595 33.9212C183.614 34.6271 183.632 35.2504 183.65 35.7912C183.724 37.1662 183.994 38.1517 184.462 38.7475C184.929 39.3433 185.722 39.6412 186.84 39.6412C187.83 39.6412 188.532 39.3708 188.944 38.83C189.357 38.28 189.595 37.3221 189.659 35.9562C189.687 35.5254 189.696 34.9662 189.687 34.2787C189.678 33.5821 189.65 32.7983 189.604 31.9275H190.8C190.837 32.7983 190.86 33.5821 190.869 34.2787C190.878 34.9662 190.874 35.5437 190.855 36.0112C190.782 37.6979 190.438 38.885 189.824 39.5725C189.219 40.26 188.225 40.6037 186.84 40.6037C185.319 40.6037 184.223 40.2508 183.554 39.545C182.885 38.83 182.518 37.62 182.454 35.915C182.436 35.3008 182.418 34.5675 182.399 33.715C182.381 32.8625 182.367 31.9642 182.358 31.02C182.358 30.0667 182.358 29.1408 182.358 28.2425H194.403C194.44 27.3717 194.463 26.4962 194.472 25.6162C194.49 24.7362 194.499 23.8792 194.499 23.045C194.499 22.2108 194.49 21.4271 194.472 20.6937C194.463 19.9512 194.444 19.2867 194.417 18.7C194.288 16.06 193.619 14.2037 192.409 13.1312C191.199 12.0496 189.32 11.5087 186.772 11.5087C184.123 11.5087 182.188 12.0817 180.969 13.2275C179.75 14.3733 179.067 16.2754 178.92 18.9337C178.875 20.0337 178.838 21.3583 178.81 22.9075C178.792 24.4567 178.783 26.0608 178.783 27.72C178.783 29.3792 178.792 30.9512 178.81 32.4362C178.838 33.9212 178.87 35.1542 178.907 36.135C179.035 38.7658 179.704 40.6496 180.914 41.7862C182.133 42.9229 184.109 43.4912 186.84 43.4912C189.453 43.4912 191.337 42.9321 192.492 41.8137C193.647 40.6954 194.288 38.8208 194.417 36.19C194.435 35.7867 194.444 35.3467 194.444 34.87C194.444 34.3933 194.435 33.9075 194.417 33.4125C194.408 32.9083 194.389 32.4133 194.362 31.9275H195.544C195.581 32.5967 195.608 33.3208 195.627 34.1C195.645 34.87 195.636 35.5804 195.599 36.2313C195.471 39.1921 194.733 41.305 193.385 42.57C192.038 43.835 189.856 44.4675 186.84 44.4675ZM186.84 42.5287C184.549 42.5287 182.88 42.0429 181.835 41.0712C180.79 40.0904 180.208 38.4312 180.089 36.0937C180.053 35.0671 180.025 33.8021 180.007 32.2987C179.988 30.7954 179.979 29.2142 179.979 27.555C179.979 25.8867 179.988 24.3008 180.007 22.7975C180.025 21.285 180.057 20.0246 180.103 19.0162C180.231 16.6421 180.813 14.96 181.849 13.97C182.894 12.9708 184.535 12.4712 186.772 12.4712C188.908 12.4712 190.489 12.9342 191.515 13.86C192.551 14.7858 193.12 16.4083 193.22 18.7275C193.257 19.36 193.28 20.1208 193.289 21.01C193.308 21.8992 193.312 22.8754 193.303 23.9387C193.303 25.0021 193.285 26.1158 193.248 27.28H181.175C181.166 29.0125 181.166 30.5433 181.175 31.8725C181.185 33.2017 181.198 34.5767 181.217 35.9975C181.244 37.9958 181.684 39.4258 182.537 40.2875C183.389 41.14 184.824 41.5662 186.84 41.5662C188.545 41.5662 189.81 41.1767 190.635 40.3975C191.47 39.6092 191.937 38.1837 192.038 36.1212C192.056 35.5529 192.061 34.9158 192.052 34.21C192.043 33.495 192.02 32.7342 191.983 31.9275H193.165C193.202 32.67 193.225 33.4033 193.234 34.1275C193.253 34.8425 193.248 35.5162 193.22 36.1487C193.12 38.4679 192.583 40.1133 191.612 41.085C190.64 42.0475 189.05 42.5287 186.84 42.5287ZM181.175 26.3175H192.079C192.107 25.2908 192.12 24.31 192.12 23.375C192.12 22.44 192.111 21.5783 192.093 20.79C192.084 20.0017 192.065 19.3233 192.038 18.755C191.946 16.7108 191.46 15.3129 190.58 14.5612C189.7 13.8096 188.431 13.4337 186.772 13.4337C184.957 13.4337 183.614 13.86 182.743 14.7125C181.881 15.5558 181.395 17.0133 181.285 19.085C181.258 19.745 181.235 20.7442 181.217 22.0825C181.198 23.4208 181.185 24.8325 181.175 26.3175ZM182.358 25.3412C182.367 24.6904 182.376 24.0029 182.385 23.2787C182.395 22.5546 182.404 21.8396 182.413 21.1337C182.431 20.4187 182.45 19.7587 182.468 19.1537C182.56 17.4212 182.94 16.1975 183.609 15.4825C184.278 14.7583 185.333 14.3962 186.772 14.3962C188.183 14.3962 189.196 14.74 189.81 15.4275C190.434 16.115 190.782 17.2608 190.855 18.865C190.874 19.2775 190.888 19.8183 190.897 20.4875C190.915 21.1567 190.924 21.9083 190.924 22.7425C190.924 23.5767 190.915 24.4429 190.897 25.3412H182.358ZM183.568 24.3787H189.714C189.723 23.6271 189.728 22.8983 189.728 22.1925C189.728 21.4775 189.719 20.8358 189.7 20.2675C189.691 19.69 189.678 19.2362 189.659 18.9062C189.604 17.6137 189.352 16.7017 188.903 16.17C188.463 15.6292 187.753 15.3587 186.772 15.3587C185.718 15.3587 184.952 15.6475 184.475 16.225C183.999 16.8025 183.728 17.7971 183.664 19.2087C183.646 19.6854 183.628 20.1942 183.609 20.735C183.6 21.2667 183.591 21.835 183.582 22.44C183.573 23.0358 183.568 23.6821 183.568 24.3787ZM218.829 44H217.647V-6.55651e-07H218.829V44ZM216.464 44H215.337L215.543 36.5062L215.282 36.4925C214.888 38.2708 214.09 39.7283 212.889 40.865C211.689 41.9925 210.144 42.5562 208.256 42.5562C206.386 42.5562 204.969 41.9696 204.007 40.7962C203.054 39.6137 202.481 37.7071 202.288 35.0762C202.178 33.4262 202.105 31.7854 202.068 30.1537C202.032 28.5129 202.027 26.8446 202.054 25.1487C202.091 23.4437 202.164 21.6654 202.274 19.8137C202.439 17.3662 203.113 15.5375 204.296 14.3275C205.487 13.1083 207.133 12.4987 209.232 12.4987C210.891 12.4987 212.216 13.035 213.206 14.1075C214.196 15.18 214.86 16.4633 215.199 17.9575H215.474L215.268 10.285V-6.55651e-07H216.464V44ZM208.847 41.6075C210.194 41.6075 211.313 41.2867 212.202 40.645C213.1 40.0033 213.788 39.1554 214.264 38.1012C214.741 37.0471 215.012 35.9012 215.076 34.6637C215.158 32.8762 215.213 31.1437 215.241 29.4662C215.277 27.7887 215.282 26.1708 215.254 24.6125C215.236 23.045 215.186 21.5508 215.103 20.13C215.03 18.9383 214.796 17.8383 214.402 16.83C214.017 15.8217 213.426 15.0104 212.628 14.3962C211.831 13.7821 210.763 13.475 209.424 13.475C207.655 13.475 206.248 13.9883 205.203 15.015C204.158 16.0417 203.581 17.6458 203.471 19.8275C203.397 21.615 203.347 23.32 203.319 24.9425C203.292 26.565 203.292 28.1967 203.319 29.8375C203.347 31.4783 203.397 33.22 203.471 35.0625C203.581 37.2992 204.053 38.9492 204.887 40.0125C205.73 41.0758 207.05 41.6075 208.847 41.6075ZM209.149 40.59C207.683 40.59 206.583 40.15 205.849 39.27C205.125 38.39 204.722 36.9875 204.639 35.0625C204.584 33.3208 204.543 31.6158 204.516 29.9475C204.497 28.27 204.497 26.5971 204.516 24.9287C204.543 23.2512 204.584 21.5554 204.639 19.8412C204.722 17.9254 205.212 16.5412 206.111 15.6887C207.018 14.8271 208.178 14.3962 209.589 14.3962C211.212 14.3962 212.326 14.96 212.931 16.0875C213.545 17.215 213.889 18.5487 213.962 20.0887C214.026 21.6287 214.067 23.1962 214.086 24.7912C214.113 26.3771 214.113 27.995 214.086 29.645C214.067 31.295 214.022 32.9633 213.948 34.65C213.866 36.4833 213.407 37.9317 212.573 38.995C211.739 40.0583 210.598 40.59 209.149 40.59ZM209.149 39.6412C210.332 39.6412 211.207 39.1829 211.776 38.2662C212.353 37.3496 212.683 36.1442 212.766 34.65C212.839 33.11 212.885 31.515 212.903 29.865C212.931 28.215 212.931 26.565 212.903 24.915C212.885 23.2558 212.839 21.6517 212.766 20.1025C212.702 18.7642 212.463 17.6412 212.051 16.7337C211.647 15.8171 210.832 15.3587 209.603 15.3587C208.567 15.3587 207.697 15.73 206.991 16.4725C206.294 17.2058 205.909 18.315 205.836 19.8C205.726 22.3758 205.671 24.8783 205.671 27.3075C205.671 29.7367 205.726 32.3262 205.836 35.0762C205.909 36.6346 206.212 37.785 206.743 38.5275C207.275 39.27 208.077 39.6412 209.149 39.6412ZM207.678 44.4675C205.203 44.4675 203.352 43.7204 202.123 42.2262C200.904 40.7321 200.171 38.3487 199.923 35.0762C199.813 33.4079 199.74 31.7487 199.703 30.0987C199.667 28.4487 199.667 26.7758 199.703 25.08C199.74 23.375 199.813 21.6104 199.923 19.7862C200.143 16.5596 200.968 14.2129 202.398 12.7462C203.828 11.2796 205.794 10.5462 208.297 10.5462C209.443 10.5462 210.479 10.7754 211.404 11.2337C212.33 11.6921 213.1 12.3704 213.714 13.2687H214.003L212.903 6.66875V-6.55651e-07H214.154V8.01625L214.856 15.1937H214.429C213.861 14.0479 213.105 13.1496 212.161 12.4987C211.217 11.8479 210.08 11.5225 208.751 11.5225C206.45 11.5225 204.644 12.1962 203.333 13.5437C202.032 14.8821 201.289 16.9675 201.106 19.8C201.005 21.56 200.932 23.2787 200.886 24.9562C200.849 26.6246 200.849 28.2883 200.886 29.9475C200.922 31.6067 200.996 33.3025 201.106 35.035C201.307 37.9133 201.935 40.0446 202.989 41.4287C204.053 42.8129 205.703 43.505 207.939 43.505C209.406 43.505 210.703 43.12 211.831 42.35C212.967 41.5708 213.847 40.5579 214.471 39.3112H214.746L214.471 44H213.371L213.384 43.5737L213.687 41.6762H213.439C212.789 42.5654 211.968 43.2529 210.978 43.7387C209.988 44.2246 208.888 44.4675 207.678 44.4675ZM235.766 44V-6.55651e-07H244.855C246.89 -6.55651e-07 248.604 0.274999 249.997 0.824999C251.4 1.375 252.468 2.32375 253.201 3.67125C253.943 5.01875 254.338 6.89333 254.383 9.295C254.438 12.0817 254.475 14.8179 254.493 17.5037C254.512 20.1896 254.512 22.935 254.493 25.74C254.484 28.545 254.448 31.5242 254.383 34.6775C254.338 37.0792 253.943 38.9583 253.201 40.315C252.458 41.6717 251.386 42.625 249.983 43.175C248.581 43.725 246.867 44 244.841 44H235.766ZM236.948 42.955H244.841C246.152 42.955 247.321 42.8267 248.347 42.57C249.374 42.3042 250.24 41.8596 250.946 41.2362C251.661 40.6129 252.206 39.765 252.582 38.6925C252.967 37.62 253.173 36.2725 253.201 34.65C253.256 31.735 253.293 28.9117 253.311 26.18C253.329 23.4392 253.329 20.6892 253.311 17.93C253.293 15.1617 253.256 12.2879 253.201 9.30875C253.155 7.12708 252.798 5.44042 252.128 4.24875C251.468 3.04792 250.52 2.21375 249.282 1.74625C248.054 1.27875 246.578 1.045 244.855 1.045H236.948V42.955ZM238.145 41.9237V2.07625H244.855C246.358 2.07625 247.632 2.2825 248.677 2.695C249.731 3.1075 250.543 3.84083 251.111 4.895C251.679 5.94917 251.982 7.42958 252.018 9.33625C252.064 11.5179 252.096 13.6492 252.115 15.73C252.133 17.8017 252.142 19.8642 252.142 21.9175C252.142 23.9708 252.133 26.0471 252.115 28.1463C252.096 30.2362 252.064 32.395 252.018 34.6225C251.982 36.52 251.679 38.0004 251.111 39.0637C250.552 40.1179 249.745 40.8604 248.691 41.2912C247.646 41.7129 246.363 41.9237 244.841 41.9237H238.145ZM239.327 40.8787H244.841C246.793 40.8787 248.274 40.4387 249.282 39.5587C250.291 38.6787 250.804 37.0517 250.822 34.6775C250.85 31.6983 250.868 28.8521 250.877 26.1387C250.886 23.4162 250.886 20.6846 250.877 17.9437C250.868 15.2029 250.85 12.32 250.822 9.295C250.804 6.96666 250.304 5.35791 249.323 4.46875C248.343 3.57042 246.853 3.12125 244.855 3.12125H239.327V40.8787ZM240.523 39.8475V4.1525H244.855C245.863 4.1525 246.72 4.30375 247.426 4.60625C248.141 4.89958 248.686 5.4175 249.062 6.16C249.438 6.9025 249.631 7.9475 249.64 9.295C249.667 12.2283 249.686 15.0608 249.695 17.7925C249.704 20.515 249.704 23.2558 249.695 26.015C249.686 28.765 249.667 31.6525 249.64 34.6775C249.621 36.6392 249.213 37.9912 248.416 38.7337C247.628 39.4762 246.436 39.8475 244.841 39.8475H240.523ZM241.706 38.8025H244.841C245.638 38.8025 246.298 38.6787 246.821 38.4312C247.353 38.1746 247.751 37.7483 248.017 37.1525C248.292 36.5475 248.434 35.7225 248.443 34.6775C248.471 31.9458 248.489 29.2462 248.498 26.5787C248.508 23.9021 248.508 21.1521 248.498 18.3287C248.498 15.4962 248.48 12.485 248.443 9.295C248.434 7.755 248.136 6.68708 247.55 6.09125C246.963 5.49542 246.065 5.1975 244.855 5.1975H241.706V38.8025ZM267.998 44.4675C264.899 44.4675 262.64 43.8396 261.219 42.5837C259.798 41.3187 259.019 39.2058 258.881 36.245C258.845 35.2183 258.813 33.9442 258.785 32.4225C258.767 30.8917 258.758 29.2875 258.758 27.61C258.758 25.9233 258.767 24.31 258.785 22.77C258.813 21.23 258.845 19.9283 258.881 18.865C259.046 15.8583 259.844 13.7179 261.274 12.4437C262.704 11.1696 264.922 10.5325 267.929 10.5325C270.908 10.5325 273.09 11.1512 274.474 12.3887C275.867 13.6262 276.628 15.7117 276.756 18.645C276.784 19.2683 276.802 19.9787 276.811 20.7762C276.83 21.5737 276.839 22.4308 276.839 23.3475C276.839 24.2642 276.83 25.2175 276.811 26.2075C276.793 27.1975 276.756 28.1967 276.701 29.205H264.698C264.707 30.0208 264.716 30.8321 264.725 31.6387C264.734 32.4454 264.744 33.2062 264.753 33.9212C264.771 34.6271 264.789 35.2504 264.808 35.7912C264.881 37.1662 265.151 38.1517 265.619 38.7475C266.086 39.3433 266.879 39.6412 267.998 39.6412C268.988 39.6412 269.689 39.3708 270.101 38.83C270.514 38.28 270.752 37.3221 270.816 35.9562C270.844 35.5254 270.853 34.9662 270.844 34.2787C270.835 33.5821 270.807 32.7983 270.761 31.9275H271.958C271.994 32.7983 272.017 33.5821 272.026 34.2787C272.036 34.9662 272.031 35.5437 272.013 36.0112C271.939 37.6979 271.596 38.885 270.981 39.5725C270.376 40.26 269.382 40.6037 267.998 40.6037C266.476 40.6037 265.381 40.2508 264.711 39.545C264.042 38.83 263.676 37.62 263.611 35.915C263.593 35.3008 263.575 34.5675 263.556 33.715C263.538 32.8625 263.524 31.9642 263.515 31.02C263.515 30.0667 263.515 29.1408 263.515 28.2425H275.56C275.597 27.3717 275.62 26.4962 275.629 25.6162C275.647 24.7362 275.656 23.8792 275.656 23.045C275.656 22.2108 275.647 21.4271 275.629 20.6937C275.62 19.9512 275.601 19.2867 275.574 18.7C275.446 16.06 274.776 14.2037 273.566 13.1312C272.356 12.0496 270.477 11.5087 267.929 11.5087C265.28 11.5087 263.346 12.0817 262.126 13.2275C260.907 14.3733 260.224 16.2754 260.078 18.9337C260.032 20.0337 259.995 21.3583 259.968 22.9075C259.949 24.4567 259.94 26.0608 259.94 27.72C259.94 29.3792 259.949 30.9512 259.968 32.4362C259.995 33.9212 260.027 35.1542 260.064 36.135C260.192 38.7658 260.861 40.6496 262.071 41.7862C263.291 42.9229 265.266 43.4912 267.998 43.4912C270.61 43.4912 272.494 42.9321 273.649 41.8137C274.804 40.6954 275.446 38.8208 275.574 36.19C275.592 35.7867 275.601 35.3467 275.601 34.87C275.601 34.3933 275.592 33.9075 275.574 33.4125C275.565 32.9083 275.546 32.4133 275.519 31.9275H276.701C276.738 32.5967 276.766 33.3208 276.784 34.1C276.802 34.87 276.793 35.5804 276.756 36.2313C276.628 39.1921 275.89 41.305 274.543 42.57C273.195 43.835 271.014 44.4675 267.998 44.4675ZM267.998 42.5287C265.706 42.5287 264.038 42.0429 262.993 41.0712C261.948 40.0904 261.366 38.4312 261.246 36.0937C261.21 35.0671 261.182 33.8021 261.164 32.2987C261.146 30.7954 261.136 29.2142 261.136 27.555C261.136 25.8867 261.146 24.3008 261.164 22.7975C261.182 21.285 261.214 20.0246 261.26 19.0162C261.389 16.6421 261.971 14.96 263.006 13.97C264.051 12.9708 265.692 12.4712 267.929 12.4712C270.065 12.4712 271.646 12.9342 272.673 13.86C273.709 14.7858 274.277 16.4083 274.378 18.7275C274.414 19.36 274.437 20.1208 274.446 21.01C274.465 21.8992 274.469 22.8754 274.46 23.9387C274.46 25.0021 274.442 26.1158 274.405 27.28H262.333C262.324 29.0125 262.324 30.5433 262.333 31.8725C262.342 33.2017 262.356 34.5767 262.374 35.9975C262.401 37.9958 262.841 39.4258 263.694 40.2875C264.546 41.14 265.981 41.5662 267.998 41.5662C269.703 41.5662 270.968 41.1767 271.793 40.3975C272.627 39.6092 273.094 38.1837 273.195 36.1212C273.214 35.5529 273.218 34.9158 273.209 34.21C273.2 33.495 273.177 32.7342 273.14 31.9275H274.323C274.359 32.67 274.382 33.4033 274.391 34.1275C274.41 34.8425 274.405 35.5162 274.378 36.1487C274.277 38.4679 273.741 40.1133 272.769 41.085C271.797 42.0475 270.207 42.5287 267.998 42.5287ZM262.333 26.3175H273.236C273.264 25.2908 273.278 24.31 273.278 23.375C273.278 22.44 273.269 21.5783 273.25 20.79C273.241 20.0017 273.223 19.3233 273.195 18.755C273.104 16.7108 272.618 15.3129 271.738 14.5612C270.858 13.8096 269.588 13.4337 267.929 13.4337C266.114 13.4337 264.771 13.86 263.9 14.7125C263.039 15.5558 262.553 17.0133 262.443 19.085C262.415 19.745 262.392 20.7442 262.374 22.0825C262.356 23.4208 262.342 24.8325 262.333 26.3175ZM263.515 25.3412C263.524 24.6904 263.534 24.0029 263.543 23.2787C263.552 22.5546 263.561 21.8396 263.57 21.1337C263.589 20.4187 263.607 19.7587 263.625 19.1537C263.717 17.4212 264.097 16.1975 264.766 15.4825C265.436 14.7583 266.49 14.3962 267.929 14.3962C269.341 14.3962 270.354 14.74 270.968 15.4275C271.591 16.115 271.939 17.2608 272.013 18.865C272.031 19.2775 272.045 19.8183 272.054 20.4875C272.072 21.1567 272.081 21.9083 272.081 22.7425C272.081 23.5767 272.072 24.4429 272.054 25.3412H263.515ZM264.725 24.3787H270.871C270.881 23.6271 270.885 22.8983 270.885 22.1925C270.885 21.4775 270.876 20.8358 270.858 20.2675C270.849 19.69 270.835 19.2362 270.816 18.9062C270.761 17.6137 270.509 16.7017 270.06 16.17C269.62 15.6292 268.91 15.3587 267.929 15.3587C266.875 15.3587 266.109 15.6475 265.633 16.225C265.156 16.8025 264.886 17.7971 264.821 19.2087C264.803 19.6854 264.785 20.1942 264.766 20.735C264.757 21.2667 264.748 21.835 264.739 22.44C264.73 23.0358 264.725 23.6821 264.725 24.3787ZM284.111 44L279.559 11H280.769L285.128 42.955H293.103L297.503 11H298.713L294.107 44H284.111ZM285.953 41.9237L284.399 30.3462L281.966 11H283.176L285.554 30.03L286.957 40.8787H291.274L292.691 30.0025L295.097 11H296.307L293.846 30.3462L292.278 41.9237H285.953ZM287.782 39.8475L286.696 29.7L284.386 11H285.582L287.851 29.3562L288.786 38.8025H289.446L290.408 29.2875L292.691 11H293.901L291.549 29.6175L290.449 39.8475H287.782Z" fill="#002244"/>
</svg>
