<svg width="240" height="80" viewBox="0 0 240 80" fill="none" xmlns="http://www.w3.org/2000/svg">
<path d="M70.035 50.5L72.73 28.5H77.68L80.375 50.5H79.77L77.1575 28.9881H73.2525L70.64 50.5H70.035ZM72.4343 50.5L73.1493 44.4362H77.2675L77.9825 50.5H77.3706L76.7862 44.9175H73.6306L73.0462 50.5H72.4343ZM71.2243 50.5L73.6168 29.4831H76.8L79.1856 50.5H78.5737L77.8312 43.955H72.5787L71.8362 50.5H71.2243ZM72.62 43.4738H77.7762L77.1231 37.3344L76.2775 29.9644H74.1325L73.2731 37.3344L72.62 43.4738ZM73.2868 42.9856L73.8437 37.3344L74.545 30.425H75.8718L76.5868 37.3344L77.1231 42.9856H73.2868ZM73.9056 42.5044H76.5043L76.0368 37.3344L75.425 30.9131H74.9918L74.38 37.3344L73.9056 42.5044Z" fill="#002244"/>
<path d="M87.9807 50.5V28.5H92.525C93.5425 28.5 94.3996 28.6375 95.0963 28.9125C95.7975 29.1875 96.3315 29.6619 96.6982 30.3356C97.0694 31.0094 97.2665 31.9467 97.2894 33.1475C97.3169 34.5408 97.3352 35.909 97.3444 37.2519C97.3536 38.5948 97.3536 39.9675 97.3444 41.37C97.3398 42.7725 97.3215 44.2621 97.2894 45.8387C97.2665 47.0396 97.0694 47.9792 96.6982 48.6575C96.3269 49.3358 95.7906 49.8125 95.0894 50.0875C94.3882 50.3625 93.5311 50.5 92.5182 50.5H87.9807ZM88.5719 49.9775H92.5182C93.1736 49.9775 93.7579 49.9133 94.2713 49.785C94.7846 49.6521 95.2177 49.4298 95.5707 49.1181C95.9282 48.8065 96.2009 48.3825 96.3888 47.8462C96.5813 47.31 96.6844 46.6362 96.6982 45.825C96.7257 44.3675 96.744 42.9558 96.7532 41.59C96.7623 40.2196 96.7623 38.8446 96.7532 37.465C96.744 36.0808 96.7257 34.644 96.6982 33.1544C96.6752 32.0635 96.4965 31.2202 96.1619 30.6244C95.8319 30.024 95.3575 29.6069 94.7388 29.3731C94.1246 29.1394 93.3867 29.0225 92.525 29.0225H88.5719V49.9775ZM89.17 49.4619V29.5381H92.525C93.2767 29.5381 93.9138 29.6412 94.4363 29.8475C94.9634 30.0537 95.369 30.4204 95.6532 30.9475C95.9373 31.4746 96.0886 32.2148 96.1069 33.1681C96.1298 34.259 96.1459 35.3246 96.155 36.365C96.1642 37.4008 96.1688 38.4321 96.1688 39.4587C96.1688 40.4854 96.1642 41.5235 96.155 42.5731C96.1459 43.6181 96.1298 44.6975 96.1069 45.8112C96.0886 46.76 95.9373 47.5002 95.6532 48.0319C95.3736 48.559 94.9702 48.9302 94.4432 49.1456C93.9207 49.3565 93.279 49.4619 92.5182 49.4619H89.17ZM89.7613 48.9394H92.5182C93.4944 48.9394 94.2346 48.7194 94.7388 48.2794C95.2429 47.8394 95.4996 47.0258 95.5088 45.8387C95.5225 44.3492 95.5317 42.926 95.5363 41.5694C95.5409 40.2081 95.5409 38.8423 95.5363 37.4719C95.5317 36.1015 95.5225 34.66 95.5088 33.1475C95.4996 31.9833 95.2498 31.179 94.7594 30.7344C94.269 30.2852 93.5242 30.0606 92.525 30.0606H89.7613V48.9394ZM90.3594 48.4237V30.5762H92.525C93.0292 30.5762 93.4577 30.6519 93.8107 30.8031C94.1682 30.9498 94.4409 31.2087 94.6288 31.58C94.8167 31.9513 94.9129 32.4737 94.9175 33.1475C94.9313 34.6142 94.9404 36.0304 94.945 37.3962C94.9496 38.7575 94.9496 40.1279 94.945 41.5075C94.9404 42.8825 94.9313 44.3262 94.9175 45.8387C94.9084 46.8196 94.7044 47.4956 94.3057 47.8669C93.9115 48.2381 93.3157 48.4237 92.5182 48.4237H90.3594ZM90.9507 47.9012H92.5182C92.9169 47.9012 93.2469 47.8394 93.5082 47.7156C93.774 47.5873 93.9734 47.3742 94.1063 47.0762C94.2438 46.7737 94.3148 46.3612 94.3194 45.8387C94.3332 44.4729 94.3423 43.1231 94.3469 41.7894C94.3515 40.451 94.3515 39.076 94.3469 37.6644C94.3469 36.2481 94.3377 34.7425 94.3194 33.1475C94.3148 32.3775 94.1659 31.8435 93.8725 31.5456C93.5792 31.2477 93.13 31.0987 92.525 31.0987H90.9507V47.9012Z" fill="#002244"/>
<path d="M104.097 50.7337C102.547 50.7337 101.418 50.4198 100.707 49.7919C99.9967 49.1594 99.6071 48.1029 99.5384 46.6225C99.5201 46.1092 99.504 45.4721 99.4903 44.7113C99.4811 43.9458 99.4765 43.1437 99.4765 42.305C99.4765 41.4617 99.4811 40.655 99.4903 39.885C99.504 39.115 99.5201 38.4642 99.5384 37.9325C99.6209 36.4292 100.02 35.359 100.735 34.7219C101.45 34.0848 102.559 33.7663 104.062 33.7663C105.552 33.7663 106.643 34.0756 107.335 34.6944C108.031 35.3131 108.412 36.3558 108.476 37.8225C108.49 38.1342 108.499 38.4894 108.503 38.8881C108.513 39.2869 108.517 39.7154 108.517 40.1737C108.517 40.6321 108.513 41.1087 108.503 41.6037C108.494 42.0987 108.476 42.5983 108.448 43.1025H102.447C102.451 43.5104 102.456 43.916 102.46 44.3194C102.465 44.7227 102.469 45.1031 102.474 45.4606C102.483 45.8135 102.492 46.1252 102.502 46.3956C102.538 47.0831 102.673 47.5758 102.907 47.8737C103.141 48.1717 103.537 48.3206 104.097 48.3206C104.592 48.3206 104.942 48.1854 105.148 47.915C105.355 47.64 105.474 47.161 105.506 46.4781C105.52 46.2627 105.524 45.9831 105.52 45.6394C105.515 45.291 105.501 44.8992 105.478 44.4637H106.077C106.095 44.8992 106.106 45.291 106.111 45.6394C106.115 45.9831 106.113 46.2719 106.104 46.5056C106.067 47.349 105.895 47.9425 105.588 48.2863C105.286 48.63 104.789 48.8019 104.097 48.8019C103.336 48.8019 102.788 48.6254 102.453 48.2725C102.119 47.915 101.935 47.31 101.903 46.4575C101.894 46.1504 101.885 45.7837 101.876 45.3575C101.867 44.9312 101.86 44.4821 101.855 44.01C101.855 43.5333 101.855 43.0704 101.855 42.6213H107.878C107.896 42.1858 107.908 41.7481 107.912 41.3081C107.921 40.8681 107.926 40.4396 107.926 40.0225C107.926 39.6054 107.921 39.2135 107.912 38.8469C107.908 38.4756 107.898 38.1433 107.885 37.85C107.82 36.53 107.486 35.6019 106.881 35.0656C106.276 34.5248 105.336 34.2544 104.062 34.2544C102.738 34.2544 101.77 34.5408 101.161 35.1138C100.551 35.6867 100.21 36.6377 100.137 37.9669C100.114 38.5169 100.095 39.1792 100.082 39.9538C100.072 40.7283 100.068 41.5304 100.068 42.36C100.068 43.1896 100.072 43.9756 100.082 44.7181C100.095 45.4606 100.111 46.0771 100.13 46.5675C100.194 47.8829 100.528 48.8248 101.133 49.3931C101.743 49.9615 102.731 50.2456 104.097 50.2456C105.403 50.2456 106.345 49.966 106.922 49.4069C107.5 48.8477 107.82 47.9104 107.885 46.595C107.894 46.3933 107.898 46.1733 107.898 45.935C107.898 45.6967 107.894 45.4538 107.885 45.2062C107.88 44.9542 107.871 44.7067 107.857 44.4637H108.448C108.467 44.7983 108.48 45.1604 108.49 45.55C108.499 45.935 108.494 46.2902 108.476 46.6156C108.412 48.096 108.043 49.1525 107.369 49.785C106.695 50.4175 105.604 50.7337 104.097 50.7337ZM104.097 49.7644C102.951 49.7644 102.117 49.5215 101.594 49.0356C101.072 48.5452 100.78 47.7156 100.721 46.5469C100.703 46.0335 100.689 45.401 100.68 44.6494C100.67 43.8977 100.666 43.1071 100.666 42.2775C100.666 41.4433 100.67 40.6504 100.68 39.8988C100.689 39.1425 100.705 38.5123 100.728 38.0081C100.792 36.821 101.083 35.98 101.601 35.485C102.123 34.9854 102.944 34.7356 104.062 34.7356C105.13 34.7356 105.921 34.9671 106.434 35.43C106.952 35.8929 107.236 36.7042 107.287 37.8638C107.305 38.18 107.316 38.5604 107.321 39.005C107.33 39.4496 107.332 39.9377 107.328 40.4694C107.328 41.001 107.319 41.5579 107.3 42.14H101.264C101.259 43.0062 101.259 43.7717 101.264 44.4362C101.269 45.1008 101.275 45.7883 101.285 46.4987C101.298 47.4979 101.518 48.2129 101.945 48.6437C102.371 49.07 103.088 49.2831 104.097 49.2831C104.949 49.2831 105.582 49.0883 105.994 48.6987C106.411 48.3046 106.645 47.5919 106.695 46.5606C106.704 46.2765 106.707 45.9579 106.702 45.605C106.698 45.2475 106.686 44.8671 106.668 44.4637H107.259C107.277 44.835 107.289 45.2017 107.293 45.5638C107.303 45.9212 107.3 46.2581 107.287 46.5744C107.236 47.734 106.968 48.5567 106.482 49.0425C105.996 49.5238 105.201 49.7644 104.097 49.7644ZM101.264 41.6587H106.716C106.73 41.1454 106.737 40.655 106.737 40.1875C106.737 39.72 106.732 39.2892 106.723 38.895C106.718 38.5008 106.709 38.1617 106.695 37.8775C106.649 36.8554 106.407 36.1565 105.967 35.7806C105.527 35.4048 104.892 35.2169 104.062 35.2169C103.155 35.2169 102.483 35.43 102.048 35.8563C101.617 36.2779 101.374 37.0067 101.319 38.0425C101.305 38.3725 101.294 38.8721 101.285 39.5412C101.275 40.2104 101.269 40.9162 101.264 41.6587ZM101.855 41.1706C101.86 40.8452 101.864 40.5015 101.869 40.1394C101.874 39.7773 101.878 39.4198 101.883 39.0669C101.892 38.7094 101.901 38.3794 101.91 38.0769C101.956 37.2106 102.146 36.5988 102.481 36.2412C102.815 35.8792 103.343 35.6981 104.062 35.6981C104.768 35.6981 105.274 35.87 105.582 36.2137C105.893 36.5575 106.067 37.1304 106.104 37.9325C106.113 38.1387 106.12 38.4092 106.125 38.7438C106.134 39.0783 106.138 39.4542 106.138 39.8713C106.138 40.2883 106.134 40.7215 106.125 41.1706H101.855ZM102.46 40.6894H105.533C105.538 40.3135 105.54 39.9492 105.54 39.5962C105.54 39.2388 105.536 38.9179 105.527 38.6338C105.522 38.345 105.515 38.1181 105.506 37.9531C105.478 37.3069 105.352 36.8508 105.128 36.585C104.908 36.3146 104.553 36.1794 104.062 36.1794C103.535 36.1794 103.152 36.3237 102.914 36.6125C102.676 36.9012 102.54 37.3985 102.508 38.1044C102.499 38.3427 102.49 38.5971 102.481 38.8675C102.476 39.1333 102.472 39.4175 102.467 39.72C102.463 40.0179 102.46 40.341 102.46 40.6894Z" fill="#002244"/>
<path d="M120.091 50.5H119.5V28.5H120.091V50.5ZM118.908 50.5H118.345L118.448 46.7531L118.317 46.7463C118.12 47.6354 117.721 48.3642 117.121 48.9325C116.521 49.4963 115.748 49.7781 114.804 49.7781C113.869 49.7781 113.161 49.4848 112.68 48.8981C112.203 48.3069 111.917 47.3535 111.82 46.0381C111.765 45.2131 111.729 44.3927 111.71 43.5769C111.692 42.7565 111.69 41.9223 111.703 41.0744C111.722 40.2219 111.758 39.3327 111.813 38.4069C111.896 37.1831 112.233 36.2687 112.824 35.6637C113.42 35.0542 114.243 34.7494 115.292 34.7494C116.122 34.7494 116.784 35.0175 117.279 35.5537C117.774 36.09 118.106 36.7317 118.276 37.4787H118.413L118.31 33.6425V28.5H118.908V50.5ZM115.1 49.3037C115.773 49.3037 116.333 49.1433 116.777 48.8225C117.226 48.5017 117.57 48.0777 117.808 47.5506C118.047 47.0235 118.182 46.4506 118.214 45.8319C118.255 44.9381 118.283 44.0719 118.297 43.2331C118.315 42.3944 118.317 41.5854 118.303 40.8062C118.294 40.0225 118.269 39.2754 118.228 38.565C118.191 37.9692 118.074 37.4192 117.877 36.915C117.685 36.4108 117.389 36.0052 116.99 35.6981C116.592 35.391 116.058 35.2375 115.388 35.2375C114.504 35.2375 113.8 35.4942 113.278 36.0075C112.755 36.5208 112.467 37.3229 112.412 38.4137C112.375 39.3075 112.35 40.16 112.336 40.9712C112.322 41.7825 112.322 42.5983 112.336 43.4188C112.35 44.2392 112.375 45.11 112.412 46.0312C112.467 47.1496 112.703 47.9746 113.12 48.5062C113.541 49.0379 114.201 49.3037 115.1 49.3037ZM115.251 48.795C114.518 48.795 113.968 48.575 113.601 48.135C113.239 47.695 113.037 46.9938 112.996 46.0312C112.968 45.1604 112.948 44.3079 112.934 43.4738C112.925 42.635 112.925 41.7985 112.934 40.9644C112.948 40.1256 112.968 39.2777 112.996 38.4206C113.037 37.4627 113.282 36.7706 113.732 36.3444C114.185 35.9135 114.765 35.6981 115.471 35.6981C116.282 35.6981 116.839 35.98 117.142 36.5437C117.449 37.1075 117.621 37.7744 117.657 38.5444C117.689 39.3144 117.71 40.0981 117.719 40.8956C117.733 41.6885 117.733 42.4975 117.719 43.3225C117.71 44.1475 117.687 44.9817 117.65 45.825C117.609 46.7417 117.38 47.4658 116.963 47.9975C116.546 48.5292 115.975 48.795 115.251 48.795ZM115.251 48.3206C115.842 48.3206 116.28 48.0915 116.564 47.6331C116.853 47.1748 117.018 46.5721 117.059 45.825C117.096 45.055 117.119 44.2575 117.128 43.4325C117.142 42.6075 117.142 41.7825 117.128 40.9575C117.119 40.1279 117.096 39.3258 117.059 38.5513C117.027 37.8821 116.908 37.3206 116.702 36.8669C116.5 36.4085 116.092 36.1794 115.478 36.1794C114.96 36.1794 114.525 36.365 114.172 36.7362C113.823 37.1029 113.631 37.6575 113.594 38.4C113.539 39.6879 113.512 40.9392 113.512 42.1537C113.512 43.3683 113.539 44.6631 113.594 46.0381C113.631 46.8173 113.782 47.3925 114.048 47.7637C114.314 48.135 114.715 48.3206 115.251 48.3206ZM114.515 50.7337C113.278 50.7337 112.352 50.3602 111.738 49.6131C111.128 48.866 110.762 47.6744 110.638 46.0381C110.583 45.204 110.546 44.3744 110.528 43.5494C110.51 42.7244 110.51 41.8879 110.528 41.04C110.546 40.1875 110.583 39.3052 110.638 38.3931C110.748 36.7798 111.16 35.6065 111.875 34.8731C112.59 34.1398 113.573 33.7731 114.825 33.7731C115.398 33.7731 115.916 33.8877 116.378 34.1169C116.841 34.346 117.226 34.6852 117.533 35.1344H117.678L117.128 31.8344V28.5H117.753V32.5081L118.104 36.0969H117.891C117.607 35.524 117.229 35.0748 116.757 34.7494C116.285 34.424 115.716 34.2612 115.052 34.2612C113.901 34.2612 112.998 34.5981 112.343 35.2719C111.692 35.941 111.321 36.9837 111.229 38.4C111.179 39.28 111.142 40.1394 111.119 40.9781C111.101 41.8123 111.101 42.6442 111.119 43.4738C111.137 44.3033 111.174 45.1513 111.229 46.0175C111.33 47.4567 111.644 48.5223 112.171 49.2144C112.703 49.9065 113.528 50.2525 114.646 50.2525C115.379 50.2525 116.028 50.06 116.592 49.675C117.16 49.2854 117.6 48.779 117.912 48.1556H118.049L117.912 50.5H117.362L117.368 50.2869L117.52 49.3381H117.396C117.071 49.7827 116.66 50.1265 116.165 50.3694C115.67 50.6123 115.12 50.7337 114.515 50.7337Z" fill="#002244"/>
<path d="M122.719 29.0225V28.5H125.689V29.0225H122.719ZM122.719 31.0987V30.5762H125.689V31.0987H122.719ZM122.719 30.0606V29.5381H125.689V30.0606H122.719ZM125.091 50.5V34H125.689V50.5H125.091ZM122.719 50.5V34H123.31V50.5H122.719ZM123.902 50.5V34H124.5V50.5H123.902Z" fill="#002244"/>
<path d="M132.684 50.7337C131.144 50.7337 130.019 50.4198 129.308 49.7919C128.598 49.1594 128.208 48.1029 128.139 46.6225C128.121 46.1092 128.105 45.4721 128.091 44.7113C128.082 43.9458 128.078 43.1437 128.078 42.305C128.078 41.4617 128.082 40.655 128.091 39.885C128.105 39.115 128.121 38.4642 128.139 37.9325C128.222 36.4292 128.616 35.359 129.322 34.7219C130.032 34.0848 131.139 33.7663 132.643 33.7663C134.155 33.7663 135.257 34.0756 135.949 34.6944C136.646 35.3131 137.022 36.3535 137.077 37.8156C137.086 38.1273 137.088 38.4825 137.084 38.8812C137.079 39.2754 137.068 39.6444 137.049 39.9881H136.458C136.477 39.6535 136.488 39.296 136.493 38.9156C136.497 38.5352 136.495 38.1777 136.486 37.8431C136.435 36.5598 136.114 35.6408 135.523 35.0863C134.932 34.5317 133.972 34.2544 132.643 34.2544C131.327 34.2544 130.365 34.5408 129.755 35.1138C129.15 35.6821 128.811 36.6331 128.738 37.9669C128.715 38.5169 128.696 39.1792 128.683 39.9538C128.673 40.7283 128.669 41.5327 128.669 42.3669C128.669 43.1965 128.673 43.9825 128.683 44.725C128.696 45.4675 128.712 46.0817 128.731 46.5675C128.79 47.8463 129.125 48.779 129.734 49.3656C130.344 49.9523 131.327 50.2456 132.684 50.2456C133.99 50.2456 134.934 49.9638 135.516 49.4C136.103 48.8363 136.426 47.9013 136.486 46.595C136.499 46.2742 136.504 45.9556 136.499 45.6394C136.499 45.3231 136.486 44.9312 136.458 44.4637H137.049C137.077 44.8671 137.093 45.2315 137.098 45.5569C137.102 45.8777 137.095 46.2306 137.077 46.6156C137.013 48.0869 136.642 49.141 135.963 49.7781C135.289 50.4152 134.196 50.7337 132.684 50.7337ZM132.684 49.7644C131.543 49.7644 130.708 49.5008 130.181 48.9738C129.659 48.4467 129.372 47.6377 129.322 46.5469C129.304 46.0335 129.29 45.401 129.281 44.6494C129.272 43.8931 129.267 43.1002 129.267 42.2706C129.267 41.4365 129.272 40.6435 129.281 39.8919C129.29 39.1356 129.306 38.5054 129.329 38.0013C129.393 36.805 129.686 35.9617 130.209 35.4712C130.731 34.9808 131.543 34.7356 132.643 34.7356C133.738 34.7356 134.542 34.9717 135.056 35.4437C135.574 35.9112 135.851 36.7156 135.888 37.8569C135.897 38.1548 135.899 38.4894 135.894 38.8606C135.89 39.2273 135.878 39.6031 135.86 39.9881H135.269C135.287 39.5848 135.299 39.2021 135.303 38.84C135.308 38.4733 135.306 38.1502 135.296 37.8706C135.264 36.8669 135.031 36.1748 134.595 35.7944C134.16 35.4094 133.509 35.2169 132.643 35.2169C131.781 35.2169 131.126 35.4185 130.676 35.8219C130.227 36.2206 129.975 36.9608 129.92 38.0425C129.906 38.3908 129.893 38.9087 129.879 39.5962C129.865 40.2792 129.854 41.0354 129.844 41.865C129.835 42.69 129.833 43.5058 129.838 44.3125C129.842 45.1146 129.856 45.8135 129.879 46.4094C129.934 47.4819 130.186 48.229 130.635 48.6506C131.084 49.0723 131.767 49.2831 132.684 49.2831C133.541 49.2831 134.178 49.086 134.595 48.6919C135.017 48.2977 135.251 47.5896 135.296 46.5675C135.306 46.2788 135.31 45.9808 135.31 45.6737C135.31 45.3667 135.296 44.9633 135.269 44.4637H135.86C135.892 44.9908 135.908 45.401 135.908 45.6944C135.908 45.9831 135.901 46.2787 135.888 46.5812C135.837 47.7225 135.567 48.5383 135.076 49.0288C134.586 49.5192 133.788 49.7644 132.684 49.7644ZM132.684 48.8019C131.951 48.8019 131.412 48.6231 131.068 48.2656C130.724 47.9081 130.537 47.2848 130.504 46.3956C130.486 45.8869 130.472 45.2681 130.463 44.5394C130.459 43.806 130.456 43.0383 130.456 42.2362C130.456 41.4342 130.461 40.6665 130.47 39.9331C130.479 39.1998 130.493 38.581 130.511 38.0769C130.557 37.1556 130.757 36.53 131.109 36.2C131.462 35.8654 131.973 35.6981 132.643 35.6981C133.353 35.6981 133.869 35.8677 134.189 36.2069C134.51 36.5415 134.682 37.1144 134.705 37.9256C134.71 38.1548 134.71 38.439 134.705 38.7781C134.705 39.1173 134.694 39.5206 134.671 39.9881H134.079C134.098 39.5481 134.109 39.1562 134.114 38.8125C134.118 38.4688 134.116 38.18 134.107 37.9463C134.093 37.3138 133.976 36.8623 133.756 36.5919C133.541 36.3169 133.17 36.1794 132.643 36.1794C132.129 36.1794 131.753 36.3215 131.515 36.6056C131.277 36.8852 131.142 37.3871 131.109 38.1112C131.091 38.5879 131.075 39.186 131.061 39.9056C131.052 40.6206 131.048 41.3792 131.048 42.1813C131.048 42.9788 131.052 43.7487 131.061 44.4912C131.071 45.2292 131.084 45.864 131.103 46.3956C131.139 47.0923 131.274 47.5873 131.508 47.8806C131.747 48.174 132.138 48.3206 132.684 48.3206C133.202 48.3206 133.564 48.1808 133.77 47.9012C133.976 47.6171 134.089 47.1496 134.107 46.4987C134.116 46.2054 134.121 45.9258 134.121 45.66C134.121 45.3942 134.107 44.9954 134.079 44.4637H134.671C134.698 44.9267 134.712 45.3231 134.712 45.6531C134.717 45.9831 134.714 46.2673 134.705 46.5056C134.668 47.3398 134.497 47.931 134.189 48.2794C133.882 48.6277 133.381 48.8019 132.684 48.8019Z" fill="#002244"/>
<path d="M147.565 50.5V38.4137C147.565 36.9287 147.281 35.8654 146.713 35.2237C146.144 34.5775 145.2 34.2544 143.88 34.2544C142.524 34.2544 141.54 34.5317 140.931 35.0863C140.321 35.6408 139.991 36.5598 139.941 37.8431C139.932 38.1685 139.927 38.5169 139.927 38.8881C139.927 39.2548 139.939 39.6215 139.961 39.9881H139.377C139.35 39.6077 139.334 39.2479 139.329 38.9087C139.329 38.565 139.336 38.2006 139.35 37.8156C139.405 36.3627 139.785 35.3246 140.491 34.7012C141.201 34.0779 142.331 33.7663 143.88 33.7663C144.902 33.7663 145.727 33.9244 146.355 34.2406C146.983 34.5523 147.439 35.0496 147.723 35.7325C148.012 36.4108 148.156 37.3046 148.156 38.4137V50.5H147.565ZM143.014 49.3175C143.669 49.3175 144.247 49.1365 144.746 48.7744C145.246 48.4123 145.638 47.9517 145.922 47.3925C146.211 46.8333 146.355 46.265 146.355 45.6875V41.7069C145.897 41.7985 145.39 41.9315 144.836 42.1056C144.281 42.2798 143.74 42.4792 143.213 42.7038C142.416 43.0567 141.809 43.4898 141.391 44.0031C140.974 44.5119 140.745 45.1994 140.704 46.0656C140.695 46.2352 140.695 46.3979 140.704 46.5537C140.718 46.7096 140.729 46.8585 140.738 47.0006C140.793 47.7569 141.018 48.3321 141.412 48.7262C141.811 49.1204 142.345 49.3175 143.014 49.3175ZM143.158 48.8019C142.604 48.8019 142.177 48.6231 141.88 48.2656C141.586 47.9035 141.403 47.4658 141.33 46.9525C141.316 46.8104 141.304 46.6615 141.295 46.5056C141.291 46.3498 141.291 46.2215 141.295 46.1206C141.336 45.3735 141.524 44.7754 141.859 44.3262C142.198 43.8725 142.714 43.4829 143.406 43.1575C143.745 42.9971 144.123 42.8412 144.54 42.69C144.957 42.5342 145.365 42.4012 145.764 42.2912V45.7425C145.764 46.2833 145.665 46.7875 145.468 47.255C145.271 47.7179 144.98 48.0915 144.595 48.3756C144.21 48.6598 143.731 48.8019 143.158 48.8019ZM143.241 48.3275C143.667 48.3275 144.022 48.2106 144.306 47.9769C144.595 47.7431 144.811 47.436 144.953 47.0556C145.095 46.6706 145.166 46.249 145.166 45.7906V42.9169C144.85 43.0315 144.561 43.146 144.3 43.2606C144.038 43.3752 143.805 43.4921 143.598 43.6112C143.002 43.9321 142.572 44.2781 142.306 44.6494C142.045 45.016 141.907 45.5042 141.893 46.1138C141.889 46.2421 141.886 46.3704 141.886 46.4987C141.891 46.6271 141.903 46.76 141.921 46.8975C141.967 47.2642 142.095 47.5942 142.306 47.8875C142.521 48.1808 142.833 48.3275 143.241 48.3275ZM142.45 50.7406C141.424 50.7406 140.608 50.4335 140.003 49.8194C139.398 49.2006 139.049 48.3115 138.958 47.1519C138.944 46.9273 138.932 46.6935 138.923 46.4506C138.919 46.2077 138.921 46.0106 138.93 45.8594C139.008 44.8052 139.322 43.9206 139.872 43.2056C140.427 42.4906 141.339 41.8673 142.608 41.3356C142.943 41.1844 143.236 41.056 143.488 40.9506C143.745 40.8406 144.004 40.7421 144.265 40.655C144.531 40.5633 144.838 40.474 145.186 40.3869V38.4137C145.186 37.6575 145.092 37.096 144.905 36.7294C144.721 36.3627 144.38 36.1794 143.88 36.1794C143.33 36.1794 142.936 36.3215 142.698 36.6056C142.464 36.8852 142.336 37.3321 142.313 37.9463C142.308 38.1388 142.304 38.4183 142.299 38.785C142.299 39.1517 142.308 39.5527 142.326 39.9881H141.735C141.717 39.5069 141.708 39.1012 141.708 38.7712C141.712 38.4367 141.717 38.141 141.721 37.8844C141.754 37.0777 141.946 36.5117 142.299 36.1862C142.652 35.8608 143.179 35.6981 143.88 35.6981C144.591 35.6981 145.083 35.9181 145.358 36.3581C145.638 36.7935 145.778 37.4787 145.778 38.4137V40.7925C145.196 40.9346 144.671 41.0881 144.203 41.2531C143.74 41.4181 143.275 41.5969 142.808 41.7894C141.653 42.266 140.835 42.8344 140.353 43.4944C139.872 44.1498 139.595 44.9542 139.521 45.9075C139.512 46.0817 139.51 46.2742 139.515 46.485C139.524 46.6912 139.535 46.8975 139.549 47.1037C139.631 48.135 139.939 48.921 140.47 49.4619C141.006 50.0027 141.726 50.2731 142.629 50.2731C143.445 50.2731 144.116 50.0829 144.643 49.7025C145.175 49.3221 145.604 48.85 145.929 48.2863H146.066L145.846 50.0325V50.5H145.255L145.248 50.3831L145.565 49.2144H145.455C145.07 49.714 144.65 50.0944 144.196 50.3556C143.743 50.6123 143.161 50.7406 142.45 50.7406ZM146.376 50.5069V49.07L146.472 47.035H146.341C146.016 47.8554 145.569 48.5223 145.001 49.0356C144.432 49.5444 143.699 49.7965 142.801 49.7919C142.045 49.7873 141.428 49.5558 140.951 49.0975C140.479 48.6392 140.209 47.9585 140.14 47.0556C140.131 46.8769 140.122 46.6912 140.113 46.4987C140.104 46.3017 140.104 46.1229 140.113 45.9625C140.177 45.0917 140.422 44.3583 140.848 43.7625C141.275 43.1621 141.996 42.6556 143.014 42.2431C143.408 42.0919 143.805 41.9498 144.203 41.8169C144.602 41.684 144.985 41.5671 145.351 41.4663C145.723 41.3608 146.064 41.2783 146.376 41.2188V38.4137C146.376 37.2725 146.183 36.4544 145.798 35.9594C145.418 35.4644 144.779 35.2169 143.88 35.2169C142.941 35.2169 142.255 35.4231 141.825 35.8356C141.398 36.2481 141.167 36.9265 141.13 37.8706C141.121 38.1915 141.116 38.5329 141.116 38.895C141.116 39.2571 141.126 39.6215 141.144 39.9881H140.553C140.534 39.6031 140.523 39.2296 140.518 38.8675C140.518 38.5008 140.523 38.164 140.532 37.8569C140.578 36.7431 140.86 35.9456 141.378 35.4644C141.896 34.9785 142.73 34.7356 143.88 34.7356C144.985 34.7356 145.775 35.0198 146.252 35.5881C146.729 36.1565 146.967 37.0983 146.967 38.4137V50.5069H146.376Z" fill="#002244"/>
<path d="M155.989 49.6888C154.687 49.6888 153.787 49.4458 153.287 48.96C152.792 48.4742 152.544 47.6927 152.544 46.6156V35.5606H150.008V35.0381H152.544V29.325H153.136V35.0381H156.986V35.5606H153.136V46.6156C153.136 47.5277 153.342 48.1831 153.754 48.5819C154.167 48.976 154.912 49.1731 155.989 49.1731C156.195 49.1731 156.401 49.1685 156.608 49.1594C156.818 49.1456 157.036 49.1273 157.261 49.1044V49.6063C157.077 49.6383 156.88 49.6613 156.669 49.675C156.463 49.6842 156.236 49.6888 155.989 49.6888ZM155.989 50.7337C154.293 50.7337 153.097 50.4152 152.4 49.7781C151.703 49.141 151.355 48.0869 151.355 46.6156V36.5988H150.008V36.0762H151.946V46.6156C151.946 47.8806 152.242 48.7973 152.833 49.3656C153.429 49.9294 154.481 50.2113 155.989 50.2113C156.241 50.2113 156.472 50.2044 156.683 50.1906C156.899 50.1723 157.091 50.1448 157.261 50.1081V50.61C156.935 50.6925 156.511 50.7337 155.989 50.7337ZM155.989 48.6575C155.127 48.6575 154.534 48.5017 154.208 48.19C153.887 47.8737 153.727 47.349 153.727 46.6156V36.0762H156.986V36.5988H154.325V46.6156C154.325 47.1702 154.44 47.5621 154.669 47.7912C154.903 48.0204 155.343 48.135 155.989 48.135C156.323 48.135 156.594 48.1327 156.8 48.1281C157.011 48.119 157.164 48.1075 157.261 48.0938V48.5887C157.114 48.6071 156.938 48.6231 156.731 48.6369C156.525 48.6506 156.278 48.6575 155.989 48.6575ZM150.008 34.5225V34H151.355V29.325H151.946V34.5225H150.008ZM153.727 34.5225V29.325H154.325V34H156.986V34.5225H153.727Z" fill="#002244"/>
<path d="M163.42 50.7337C161.871 50.7337 160.741 50.4198 160.031 49.7919C159.32 49.1594 158.931 48.1029 158.862 46.6225C158.844 46.1092 158.828 45.4721 158.814 44.7113C158.805 43.9458 158.8 43.1437 158.8 42.305C158.8 41.4617 158.805 40.655 158.814 39.885C158.828 39.115 158.844 38.4642 158.862 37.9325C158.945 36.4292 159.343 35.359 160.058 34.7219C160.773 34.0848 161.883 33.7663 163.386 33.7663C164.875 33.7663 165.966 34.0756 166.658 34.6944C167.355 35.3131 167.735 36.3558 167.8 37.8225C167.813 38.1342 167.823 38.4894 167.827 38.8881C167.836 39.2869 167.841 39.7154 167.841 40.1737C167.841 40.6321 167.836 41.1087 167.827 41.6037C167.818 42.0987 167.8 42.5983 167.772 43.1025H161.77C161.775 43.5104 161.779 43.916 161.784 44.3194C161.789 44.7227 161.793 45.1031 161.798 45.4606C161.807 45.8135 161.816 46.1252 161.825 46.3956C161.862 47.0831 161.997 47.5758 162.231 47.8737C162.465 48.1717 162.861 48.3206 163.42 48.3206C163.915 48.3206 164.266 48.1854 164.472 47.915C164.678 47.64 164.798 47.161 164.83 46.4781C164.843 46.2627 164.848 45.9831 164.843 45.6394C164.839 45.291 164.825 44.8992 164.802 44.4637H165.4C165.419 44.8992 165.43 45.291 165.435 45.6394C165.439 45.9831 165.437 46.2719 165.428 46.5056C165.391 47.349 165.219 47.9425 164.912 48.2863C164.61 48.63 164.112 48.8019 163.42 48.8019C162.659 48.8019 162.112 48.6254 161.777 48.2725C161.443 47.915 161.259 47.31 161.227 46.4575C161.218 46.1504 161.209 45.7837 161.2 45.3575C161.19 44.9312 161.184 44.4821 161.179 44.01C161.179 43.5333 161.179 43.0704 161.179 42.6213H167.201C167.22 42.1858 167.231 41.7481 167.236 41.3081C167.245 40.8681 167.25 40.4396 167.25 40.0225C167.25 39.6054 167.245 39.2135 167.236 38.8469C167.231 38.4756 167.222 38.1433 167.208 37.85C167.144 36.53 166.81 35.6019 166.205 35.0656C165.6 34.5248 164.66 34.2544 163.386 34.2544C162.061 34.2544 161.094 34.5408 160.485 35.1138C159.875 35.6867 159.534 36.6377 159.46 37.9669C159.437 38.5169 159.419 39.1792 159.405 39.9538C159.396 40.7283 159.391 41.5304 159.391 42.36C159.391 43.1896 159.396 43.9756 159.405 44.7181C159.419 45.4606 159.435 46.0771 159.453 46.5675C159.518 47.8829 159.852 48.8248 160.457 49.3931C161.067 49.9615 162.054 50.2456 163.42 50.2456C164.726 50.2456 165.668 49.966 166.246 49.4069C166.823 48.8477 167.144 47.9104 167.208 46.595C167.218 46.3933 167.222 46.1733 167.222 45.935C167.222 45.6967 167.218 45.4538 167.208 45.2062C167.204 44.9542 167.195 44.7067 167.181 44.4637H167.772C167.79 44.7983 167.804 45.1604 167.813 45.55C167.823 45.935 167.818 46.2902 167.8 46.6156C167.735 48.096 167.367 49.1525 166.693 49.785C166.019 50.4175 164.928 50.7337 163.42 50.7337ZM163.42 49.7644C162.274 49.7644 161.44 49.5215 160.918 49.0356C160.395 48.5452 160.104 47.7156 160.045 46.5469C160.026 46.0335 160.013 45.401 160.003 44.6494C159.994 43.8977 159.99 43.1071 159.99 42.2775C159.99 41.4433 159.994 40.6504 160.003 39.8988C160.013 39.1425 160.029 38.5123 160.051 38.0081C160.116 36.821 160.407 35.98 160.925 35.485C161.447 34.9854 162.268 34.7356 163.386 34.7356C164.454 34.7356 165.244 34.9671 165.758 35.43C166.276 35.8929 166.56 36.7042 166.61 37.8638C166.629 38.18 166.64 38.5604 166.645 39.005C166.654 39.4496 166.656 39.9377 166.651 40.4694C166.651 41.001 166.642 41.5579 166.624 42.14H160.588C160.583 43.0062 160.583 43.7717 160.588 44.4362C160.592 45.1008 160.599 45.7883 160.608 46.4987C160.622 47.4979 160.842 48.2129 161.268 48.6437C161.695 49.07 162.412 49.2831 163.42 49.2831C164.273 49.2831 164.905 49.0883 165.318 48.6987C165.735 48.3046 165.969 47.5919 166.019 46.5606C166.028 46.2765 166.03 45.9579 166.026 45.605C166.021 45.2475 166.01 44.8671 165.992 44.4637H166.583C166.601 44.835 166.613 45.2017 166.617 45.5638C166.626 45.9212 166.624 46.2581 166.61 46.5744C166.56 47.734 166.292 48.5567 165.806 49.0425C165.32 49.5238 164.525 49.7644 163.42 49.7644ZM160.588 41.6587H166.04C166.053 41.1454 166.06 40.655 166.06 40.1875C166.06 39.72 166.056 39.2892 166.046 38.895C166.042 38.5008 166.033 38.1617 166.019 37.8775C165.973 36.8554 165.73 36.1565 165.29 35.7806C164.85 35.4048 164.215 35.2169 163.386 35.2169C162.478 35.2169 161.807 35.43 161.371 35.8563C160.941 36.2779 160.698 37.0067 160.643 38.0425C160.629 38.3725 160.618 38.8721 160.608 39.5412C160.599 40.2104 160.592 40.9162 160.588 41.6587ZM161.179 41.1706C161.184 40.8452 161.188 40.5015 161.193 40.1394C161.197 39.7773 161.202 39.4198 161.206 39.0669C161.216 38.7094 161.225 38.3794 161.234 38.0769C161.28 37.2106 161.47 36.5988 161.805 36.2412C162.139 35.8792 162.666 35.6981 163.386 35.6981C164.092 35.6981 164.598 35.87 164.905 36.2137C165.217 36.5575 165.391 37.1304 165.428 37.9325C165.437 38.1387 165.444 38.4092 165.448 38.7438C165.458 39.0783 165.462 39.4542 165.462 39.8713C165.462 40.2883 165.458 40.7215 165.448 41.1706H161.179ZM161.784 40.6894H164.857C164.862 40.3135 164.864 39.9492 164.864 39.5962C164.864 39.2388 164.859 38.9179 164.85 38.6338C164.846 38.345 164.839 38.1181 164.83 37.9531C164.802 37.3069 164.676 36.8508 164.451 36.585C164.231 36.3146 163.876 36.1794 163.386 36.1794C162.859 36.1794 162.476 36.3237 162.238 36.6125C161.999 36.9012 161.864 37.3985 161.832 38.1044C161.823 38.3427 161.814 38.5971 161.805 38.8675C161.8 39.1333 161.795 39.4175 161.791 39.72C161.786 40.0179 161.784 40.341 161.784 40.6894Z" fill="#002244"/>
<path d="M179.415 50.5H178.823V28.5H179.415V50.5ZM178.232 50.5H177.668L177.772 46.7531L177.641 46.7463C177.444 47.6354 177.045 48.3642 176.445 48.9325C175.844 49.4963 175.072 49.7781 174.128 49.7781C173.193 49.7781 172.485 49.4848 172.003 48.8981C171.527 48.3069 171.24 47.3535 171.144 46.0381C171.089 45.2131 171.052 44.3927 171.034 43.5769C171.016 42.7565 171.013 41.9223 171.027 41.0744C171.046 40.2219 171.082 39.3327 171.137 38.4069C171.22 37.1831 171.557 36.2687 172.148 35.6637C172.744 35.0542 173.566 34.7494 174.616 34.7494C175.446 34.7494 176.108 35.0175 176.603 35.5537C177.098 36.09 177.43 36.7317 177.6 37.4787H177.737L177.634 33.6425V28.5H178.232V50.5ZM174.423 49.3037C175.097 49.3037 175.656 49.1433 176.101 48.8225C176.55 48.5017 176.894 48.0777 177.132 47.5506C177.371 47.0235 177.506 46.4506 177.538 45.8319C177.579 44.9381 177.607 44.0719 177.62 43.2331C177.639 42.3944 177.641 41.5854 177.627 40.8062C177.618 40.0225 177.593 39.2754 177.552 38.565C177.515 37.9692 177.398 37.4192 177.201 36.915C177.008 36.4108 176.713 36.0052 176.314 35.6981C175.915 35.391 175.381 35.2375 174.712 35.2375C173.828 35.2375 173.124 35.4942 172.602 36.0075C172.079 36.5208 171.79 37.3229 171.735 38.4137C171.699 39.3075 171.673 40.16 171.66 40.9712C171.646 41.7825 171.646 42.5983 171.66 43.4188C171.673 44.2392 171.699 45.11 171.735 46.0312C171.79 47.1496 172.026 47.9746 172.443 48.5062C172.865 49.0379 173.525 49.3037 174.423 49.3037ZM174.575 48.795C173.841 48.795 173.291 48.575 172.925 48.135C172.563 47.695 172.361 46.9938 172.32 46.0312C172.292 45.1604 172.272 44.3079 172.258 43.4738C172.249 42.635 172.249 41.7985 172.258 40.9644C172.272 40.1256 172.292 39.2777 172.32 38.4206C172.361 37.4627 172.606 36.7706 173.055 36.3444C173.509 35.9135 174.089 35.6981 174.795 35.6981C175.606 35.6981 176.163 35.98 176.465 36.5437C176.772 37.1075 176.944 37.7744 176.981 38.5444C177.013 39.3144 177.034 40.0981 177.043 40.8956C177.057 41.6885 177.057 42.4975 177.043 43.3225C177.034 44.1475 177.011 44.9817 176.974 45.825C176.933 46.7417 176.704 47.4658 176.287 47.9975C175.87 48.5292 175.299 48.795 174.575 48.795ZM174.575 48.3206C175.166 48.3206 175.604 48.0915 175.888 47.6331C176.177 47.1748 176.342 46.5721 176.383 45.825C176.42 45.055 176.442 44.2575 176.452 43.4325C176.465 42.6075 176.465 41.7825 176.452 40.9575C176.442 40.1279 176.42 39.3258 176.383 38.5513C176.351 37.8821 176.232 37.3206 176.025 36.8669C175.824 36.4085 175.416 36.1794 174.802 36.1794C174.284 36.1794 173.848 36.365 173.495 36.7362C173.147 37.1029 172.955 37.6575 172.918 38.4C172.863 39.6879 172.835 40.9392 172.835 42.1537C172.835 43.3683 172.863 44.6631 172.918 46.0381C172.955 46.8173 173.106 47.3925 173.372 47.7637C173.637 48.135 174.038 48.3206 174.575 48.3206ZM173.839 50.7337C172.602 50.7337 171.676 50.3602 171.062 49.6131C170.452 48.866 170.085 47.6744 169.962 46.0381C169.907 45.204 169.87 44.3744 169.852 43.5494C169.833 42.7244 169.833 41.8879 169.852 41.04C169.87 40.1875 169.907 39.3052 169.962 38.3931C170.072 36.7798 170.484 35.6065 171.199 34.8731C171.914 34.1398 172.897 33.7731 174.148 33.7731C174.721 33.7731 175.239 33.8877 175.702 34.1169C176.165 34.346 176.55 34.6852 176.857 35.1344H177.002L176.452 31.8344V28.5H177.077V32.5081L177.428 36.0969H177.215C176.931 35.524 176.552 35.0748 176.08 34.7494C175.608 34.424 175.04 34.2612 174.375 34.2612C173.225 34.2612 172.322 34.5981 171.667 35.2719C171.016 35.941 170.645 36.9837 170.553 38.4C170.502 39.28 170.466 40.1394 170.443 40.9781C170.425 41.8123 170.425 42.6442 170.443 43.4738C170.461 44.3033 170.498 45.1513 170.553 46.0175C170.654 47.4567 170.968 48.5223 171.495 49.2144C172.026 49.9065 172.851 50.2525 173.97 50.2525C174.703 50.2525 175.352 50.06 175.915 49.675C176.484 49.2854 176.924 48.779 177.235 48.1556H177.373L177.235 50.5H176.685L176.692 50.2869L176.843 49.3381H176.72C176.394 49.7827 175.984 50.1265 175.489 50.3694C174.994 50.6123 174.444 50.7337 173.839 50.7337Z" fill="#002244"/>
<path d="M187.883 50.5V28.5H192.427C193.445 28.5 194.302 28.6375 194.999 28.9125C195.7 29.1875 196.234 29.6619 196.6 30.3356C196.972 31.0094 197.169 31.9467 197.192 33.1475C197.219 34.5408 197.238 35.909 197.247 37.2519C197.256 38.5948 197.256 39.9675 197.247 41.37C197.242 42.7725 197.224 44.2621 197.192 45.8387C197.169 47.0396 196.972 47.9792 196.6 48.6575C196.229 49.3358 195.693 49.8125 194.992 50.0875C194.29 50.3625 193.433 50.5 192.421 50.5H187.883ZM188.474 49.9775H192.421C193.076 49.9775 193.66 49.9133 194.174 49.785C194.687 49.6521 195.12 49.4298 195.473 49.1181C195.83 48.8065 196.103 48.3825 196.291 47.8462C196.484 47.31 196.587 46.6362 196.6 45.825C196.628 44.3675 196.646 42.9558 196.656 41.59C196.665 40.2196 196.665 38.8446 196.656 37.465C196.646 36.0808 196.628 34.644 196.6 33.1544C196.578 32.0635 196.399 31.2202 196.064 30.6244C195.734 30.024 195.26 29.6069 194.641 29.3731C194.027 29.1394 193.289 29.0225 192.427 29.0225H188.474V49.9775ZM189.072 49.4619V29.5381H192.427C193.179 29.5381 193.816 29.6412 194.339 29.8475C194.866 30.0537 195.271 30.4204 195.555 30.9475C195.84 31.4746 195.991 32.2148 196.009 33.1681C196.032 34.259 196.048 35.3246 196.057 36.365C196.067 37.4008 196.071 38.4321 196.071 39.4587C196.071 40.4854 196.067 41.5235 196.057 42.5731C196.048 43.6181 196.032 44.6975 196.009 45.8112C195.991 46.76 195.84 47.5002 195.555 48.0319C195.276 48.559 194.873 48.9302 194.346 49.1456C193.823 49.3565 193.181 49.4619 192.421 49.4619H189.072ZM189.664 48.9394H192.421C193.397 48.9394 194.137 48.7194 194.641 48.2794C195.145 47.8394 195.402 47.0258 195.411 45.8387C195.425 44.3492 195.434 42.926 195.439 41.5694C195.443 40.2081 195.443 38.8423 195.439 37.4719C195.434 36.1015 195.425 34.66 195.411 33.1475C195.402 31.9833 195.152 31.179 194.662 30.7344C194.171 30.2852 193.427 30.0606 192.427 30.0606H189.664V48.9394ZM190.262 48.4237V30.5762H192.427C192.932 30.5762 193.36 30.6519 193.713 30.8031C194.07 30.9498 194.343 31.2087 194.531 31.58C194.719 31.9513 194.815 32.4737 194.82 33.1475C194.834 34.6142 194.843 36.0304 194.847 37.3962C194.852 38.7575 194.852 40.1279 194.847 41.5075C194.843 42.8825 194.834 44.3262 194.82 45.8387C194.811 46.8196 194.607 47.4956 194.208 47.8669C193.814 48.2381 193.218 48.4237 192.421 48.4237H190.262ZM190.853 47.9012H192.421C192.819 47.9012 193.149 47.8394 193.41 47.7156C193.676 47.5873 193.876 47.3742 194.009 47.0762C194.146 46.7737 194.217 46.3612 194.222 45.8387C194.235 44.4729 194.245 43.1231 194.249 41.7894C194.254 40.451 194.254 39.076 194.249 37.6644C194.249 36.2481 194.24 34.7425 194.222 33.1475C194.217 32.3775 194.068 31.8435 193.775 31.5456C193.482 31.2477 193.032 31.0987 192.427 31.0987H190.853V47.9012Z" fill="#002244"/>
<path d="M203.999 50.7337C202.45 50.7337 201.32 50.4198 200.609 49.7919C199.899 49.1594 199.509 48.1029 199.441 46.6225C199.422 46.1092 199.406 45.4721 199.393 44.7113C199.383 43.9458 199.379 43.1437 199.379 42.305C199.379 41.4617 199.383 40.655 199.393 39.885C199.406 39.115 199.422 38.4642 199.441 37.9325C199.523 36.4292 199.922 35.359 200.637 34.7219C201.352 34.0848 202.461 33.7663 203.964 33.7663C205.454 33.7663 206.545 34.0756 207.237 34.6944C207.934 35.3131 208.314 36.3558 208.378 37.8225C208.392 38.1342 208.401 38.4894 208.406 38.8881C208.415 39.2869 208.419 39.7154 208.419 40.1737C208.419 40.6321 208.415 41.1087 208.406 41.6037C208.397 42.0987 208.378 42.5983 208.351 43.1025H202.349C202.353 43.5104 202.358 43.916 202.363 44.3194C202.367 44.7227 202.372 45.1031 202.376 45.4606C202.386 45.8135 202.395 46.1252 202.404 46.3956C202.441 47.0831 202.576 47.5758 202.809 47.8737C203.043 48.1717 203.44 48.3206 203.999 48.3206C204.494 48.3206 204.844 48.1854 205.051 47.915C205.257 47.64 205.376 47.161 205.408 46.4781C205.422 46.2627 205.427 45.9831 205.422 45.6394C205.417 45.291 205.404 44.8992 205.381 44.4637H205.979C205.997 44.8992 206.009 45.291 206.013 45.6394C206.018 45.9831 206.016 46.2719 206.006 46.5056C205.97 47.349 205.798 47.9425 205.491 48.2863C205.188 48.63 204.691 48.8019 203.999 48.8019C203.238 48.8019 202.69 48.6254 202.356 48.2725C202.021 47.915 201.838 47.31 201.806 46.4575C201.797 46.1504 201.787 45.7837 201.778 45.3575C201.769 44.9312 201.762 44.4821 201.758 44.01C201.758 43.5333 201.758 43.0704 201.758 42.6213H207.78C207.798 42.1858 207.81 41.7481 207.814 41.3081C207.824 40.8681 207.828 40.4396 207.828 40.0225C207.828 39.6054 207.824 39.2135 207.814 38.8469C207.81 38.4756 207.801 38.1433 207.787 37.85C207.723 36.53 207.388 35.6019 206.783 35.0656C206.178 34.5248 205.239 34.2544 203.964 34.2544C202.64 34.2544 201.673 34.5408 201.063 35.1138C200.454 35.6867 200.112 36.6377 200.039 37.9669C200.016 38.5169 199.998 39.1792 199.984 39.9538C199.975 40.7283 199.97 41.5304 199.97 42.36C199.97 43.1896 199.975 43.9756 199.984 44.7181C199.998 45.4606 200.014 46.0771 200.032 46.5675C200.096 47.8829 200.431 48.8248 201.036 49.3931C201.645 49.9615 202.633 50.2456 203.999 50.2456C205.305 50.2456 206.247 49.966 206.824 49.4069C207.402 48.8477 207.723 47.9104 207.787 46.595C207.796 46.3933 207.801 46.1733 207.801 45.935C207.801 45.6967 207.796 45.4538 207.787 45.2062C207.782 44.9542 207.773 44.7067 207.759 44.4637H208.351C208.369 44.7983 208.383 45.1604 208.392 45.55C208.401 45.935 208.397 46.2902 208.378 46.6156C208.314 48.096 207.945 49.1525 207.271 49.785C206.598 50.4175 205.507 50.7337 203.999 50.7337ZM203.999 49.7644C202.853 49.7644 202.019 49.5215 201.496 49.0356C200.974 48.5452 200.683 47.7156 200.623 46.5469C200.605 46.0335 200.591 45.401 200.582 44.6494C200.573 43.8977 200.568 43.1071 200.568 42.2775C200.568 41.4433 200.573 40.6504 200.582 39.8988C200.591 39.1425 200.607 38.5123 200.63 38.0081C200.694 36.821 200.985 35.98 201.503 35.485C202.026 34.9854 202.846 34.7356 203.964 34.7356C205.032 34.7356 205.823 34.9671 206.336 35.43C206.854 35.8929 207.138 36.7042 207.189 37.8638C207.207 38.18 207.219 38.5604 207.223 39.005C207.232 39.4496 207.235 39.9377 207.23 40.4694C207.23 41.001 207.221 41.5579 207.203 42.14H201.166C201.162 43.0062 201.162 43.7717 201.166 44.4362C201.171 45.1008 201.178 45.7883 201.187 46.4987C201.201 47.4979 201.421 48.2129 201.847 48.6437C202.273 49.07 202.991 49.2831 203.999 49.2831C204.851 49.2831 205.484 49.0883 205.896 48.6987C206.313 48.3046 206.547 47.5919 206.598 46.5606C206.607 46.2765 206.609 45.9579 206.604 45.605C206.6 45.2475 206.588 44.8671 206.57 44.4637H207.161C207.18 44.835 207.191 45.2017 207.196 45.5638C207.205 45.9212 207.203 46.2581 207.189 46.5744C207.138 47.734 206.87 48.5567 206.384 49.0425C205.899 49.5238 205.103 49.7644 203.999 49.7644ZM201.166 41.6587H206.618C206.632 41.1454 206.639 40.655 206.639 40.1875C206.639 39.72 206.634 39.2892 206.625 38.895C206.621 38.5008 206.611 38.1617 206.598 37.8775C206.552 36.8554 206.309 36.1565 205.869 35.7806C205.429 35.4048 204.794 35.2169 203.964 35.2169C203.057 35.2169 202.386 35.43 201.95 35.8563C201.519 36.2779 201.276 37.0067 201.221 38.0425C201.208 38.3725 201.196 38.8721 201.187 39.5412C201.178 40.2104 201.171 40.9162 201.166 41.6587ZM201.758 41.1706C201.762 40.8452 201.767 40.5015 201.771 40.1394C201.776 39.7773 201.781 39.4198 201.785 39.0669C201.794 38.7094 201.803 38.3794 201.813 38.0769C201.858 37.2106 202.049 36.5988 202.383 36.2412C202.718 35.8792 203.245 35.6981 203.964 35.6981C204.67 35.6981 205.177 35.87 205.484 36.2137C205.796 36.5575 205.97 37.1304 206.006 37.9325C206.016 38.1387 206.022 38.4092 206.027 38.7438C206.036 39.0783 206.041 39.4542 206.041 39.8713C206.041 40.2883 206.036 40.7215 206.027 41.1706H201.758ZM202.363 40.6894H205.436C205.44 40.3135 205.443 39.9492 205.443 39.5962C205.443 39.2388 205.438 38.9179 205.429 38.6338C205.424 38.345 205.417 38.1181 205.408 37.9531C205.381 37.3069 205.255 36.8508 205.03 36.585C204.81 36.3146 204.455 36.1794 203.964 36.1794C203.437 36.1794 203.055 36.3237 202.816 36.6125C202.578 36.9012 202.443 37.3985 202.411 38.1044C202.402 38.3427 202.392 38.5971 202.383 38.8675C202.379 39.1333 202.374 39.4175 202.369 39.72C202.365 40.0179 202.363 40.341 202.363 40.6894Z" fill="#002244"/>
<path d="M212.055 50.5L209.78 34H210.385L212.564 49.9775H216.552L218.752 34H219.357L217.053 50.5H212.055ZM212.977 49.4619L212.2 43.6731L210.983 34H211.588L212.777 43.515L213.478 48.9394H215.637L216.345 43.5013L217.548 34H218.153L216.923 43.6731L216.139 49.4619H212.977ZM213.891 48.4237L213.348 43.35L212.193 34H212.791L213.925 43.1781L214.393 47.9012H214.723L215.204 43.1437L216.345 34H216.95L215.775 43.3088L215.225 48.4237H213.891Z" fill="#002244"/>
<path d="M60 40C60 51.0457 51.0457 60 40 60C28.9543 60 20 51.0457 20 40C20 28.9543 28.9543 20 40 20C51.0457 20 60 28.9543 60 40Z" fill="#A2D2FF"/>
<path d="M38.5892 37.4975L27.4379 39.3125V38.8312L38.5892 37.0163V37.4975ZM38.5892 43.0662L27.4379 41.2581V39.7869L38.5892 37.9719V38.4531L27.9192 40.1925V40.8525L38.5892 42.5919V43.0662ZM38.5892 42.1106L32.6217 41.2031L29.0742 40.6737V40.3644L32.6217 39.8419L38.5892 38.9344V39.4087L32.1404 40.3162L30.6004 40.4606V40.5844L32.1404 40.7287L38.5892 41.6362V42.1106ZM38.5892 44.0219L27.4379 42.2137V41.7325L38.5892 43.5475V44.0219Z" fill="#002244"/>
<path d="M42.4233 37.4975V37.0163L53.5745 38.8312V39.3125L42.4233 37.4975ZM42.4233 43.0662V42.5919L53.0933 40.8525V40.1925L42.4233 38.4531V37.9719L53.5745 39.7869V41.2581L42.4233 43.0662ZM42.4233 42.1106V41.6362L48.872 40.7287L50.412 40.5844V40.4606L48.872 40.3162L42.4233 39.4087V38.9344L48.3908 39.8419L51.9383 40.3644V40.6737L48.3908 41.2031L42.4233 42.1106ZM42.4233 44.0219V43.5475L53.5745 41.7325V42.2137L42.4233 44.0219Z" fill="#002244"/>
</svg>
