<?xml version="1.0" standalone="no"?>
<!DOCTYPE svg PUBLIC "-//W3C//DTD SVG 20010904//EN"
 "http://www.w3.org/TR/2001/REC-SVG-20010904/DTD/svg10.dtd">
<svg version="1.0" xmlns="http://www.w3.org/2000/svg"
 width="700.000000pt" height="700.000000pt" viewBox="0 0 700.000000 700.000000"
 preserveAspectRatio="xMidYMid meet">
<metadata>
Created by potrace 1.14, written by Peter Selinger 2001-2017
</metadata>
<g transform="translate(0.000000,700.000000) scale(0.100000,-0.100000)"
fill="#000000" stroke="none">
<path d="M2280 3865 c-514 -85 -944 -155 -955 -157 -16 -2 -21 -12 -23 -46
l-3 -42 43 6 c24 4 462 75 973 158 l930 152 3 42 c3 35 0 42 -15 41 -10 -1
-439 -70 -953 -154z"/>
<path d="M3920 3980 c0 -33 4 -40 23 -45 12 -3 441 -73 952 -156 512 -83 943
-153 958 -156 28 -6 28 -5 25 38 l-3 44 -70 12 c-166 28 -1864 303 -1874 303
-6 0 -11 -17 -11 -40z"/>
<path d="M2630 3755 c-311 -51 -737 -121 -947 -156 l-383 -62 0 -128 c0 -71 3
-129 8 -130 4 0 441 -71 972 -157 l965 -157 3 38 c2 22 2 41 0 42 -2 2 -215
38 -473 80 -259 42 -674 110 -924 151 -249 41 -455 74 -457 74 -2 0 -4 27 -4
60 0 41 4 60 13 60 13 0 1773 286 1820 296 24 5 27 10 27 45 0 36 -2 39 -27
38 -16 -1 -282 -43 -593 -94z"/>
<path d="M3920 3810 c0 -22 2 -40 4 -40 2 0 194 -31 427 -69 974 -159 1418
-231 1428 -231 7 0 11 -23 11 -60 0 -33 -1 -60 -3 -60 -7 0 -1786 -291 -1822
-298 -39 -7 -40 -9 -40 -47 0 -34 3 -40 20 -38 17 2 514 83 1200 194 99 16
293 47 430 69 138 22 262 43 278 46 l27 6 0 123 c0 68 -4 126 -9 130 -11 6
-1902 315 -1931 315 -17 0 -20 -7 -20 -40z"/>
<path d="M2965 3643 c-402 -61 -1196 -180 -1292 -194 -82 -11 -83 -12 -83 -40
0 -16 2 -29 4 -29 16 0 1590 -238 1629 -246 26 -5 27 -4 27 38 l0 44 -557 77
c-307 43 -618 84 -691 91 -122 12 -153 19 -141 31 3 2 56 9 119 15 121 11
1262 169 1268 175 2 1 2 20 0 42 l-3 38 -280 -42z"/>
<path d="M3926 3682 c-9 -8 -7 -70 2 -76 12 -7 1141 -164 1272 -176 63 -6 116
-13 119 -15 12 -12 -19 -19 -151 -32 -79 -8 -390 -49 -693 -91 l-550 -77 -3
-43 c-2 -23 -1 -42 1 -42 2 0 224 34 493 74 618 95 1160 176 1168 176 3 0 6
14 6 30 0 17 -5 30 -11 30 -23 0 -1586 234 -1631 244 -9 2 -19 1 -22 -2z"/>
<path d="M1300 3155 c0 -25 4 -45 9 -45 4 0 438 -70 963 -155 526 -85 960
-155 967 -155 6 0 11 17 11 39 0 35 -3 40 -27 45 -24 5 -864 142 -1633 266
-135 22 -255 42 -267 45 -21 5 -23 2 -23 -40z"/>
<path d="M4905 3039 c-528 -87 -966 -158 -972 -158 -8 -1 -13 -16 -13 -41 0
-31 4 -40 18 -40 29 0 1922 309 1933 315 11 7 12 72 2 78 -5 2 -440 -67 -968
-154z"/>
</g>
</svg>
